<mxfile host="app.diagrams.net" modified="2023-01-26T23:41:04.063Z" agent="5.0 (Windows NT 10.0; Win64; x64) AppleWebKit/537.36 (KHTML, like Gecko) Chrome/109.0.0.0 Safari/537.36" etag="ZdtNbb7HwfP93A3iYyis" version="20.8.11" type="github">
  <diagram name="ページ1" id="kA0PDQbNFv2C7EWSJq0O">
    <mxGraphModel dx="2336" dy="3107" grid="1" gridSize="10" guides="1" tooltips="1" connect="1" arrows="1" fold="1" page="1" pageScale="1" pageWidth="827" pageHeight="1169" math="0" shadow="0">
      <root>
        <mxCell id="0" />
        <mxCell id="1" parent="0" />
        <mxCell id="GqlQAkB-K6Ch1QKG9bl8-1" value="" style="shape=image;verticalLabelPosition=bottom;labelBackgroundColor=default;verticalAlign=top;aspect=fixed;imageAspect=0;image=data:image/png,iVBORw0KGgoAAAANSUhEUgAACDQAAAVQCAIAAAAxhA8SAAAgAElEQVR4AezBoRFEMQxDQQmmgHTn8tynDv2ZENMjfrvOPQIAAAAAAAAAAPgX5x4BAAAAAAAAAAD8i3OPAAAAAAAAAAAA/sW5RwAAAAAAAAAAAP/i3CMAAAAAAAAAAIB/ce7Rw20BAHZLRQO3BQDYLRUN3BYAYLdUNHBbAAB8nHv0cFsAgN1S0cBtAQB2S0UDtwUA2C0VDdwWAAAf5x493BYAYLdUNHBbAIDdUtHAbQEAdktFA7cFAMDHuUcPtwUA2C0VDdwWAGC3VDRwWwCA3VLRwG0BAPBx7tHDbQEAdktFA7cFANgtFQ3cFgBgt1Q0cFsAAHyce/RwWwCA3VLRwG0BAHZLRQO3BQDYLRUN3BYAAB/nHj3cFgBgt1Q0cFsAgN1S0cBtAQB2S0UDtwUAwMe5Rw+3BQDYLRUN3BYAYLdUNHBbAIDdUtHAbQEA8HHu0cNtAQB2S0UDtwUA2C0VDdwWAGC3VDRwWwAAfJx79HBbAIDdUtHAbQEAdktFA7cFANgtFQ3cFgAAH+cePdwWAGC3VDRwWwCA3VLRwG0BAHZLRQO3BQDAx7lHD7cFANgtFQ3cFgBgt1Q0cFsAgN1S0cBtAQDwce7Rw20BAHZLRQO3BQDYLRUN3BYAYLdUNHBbAAB8nHv0cFsAgN1S0cBtAQB2S0UDtwUA2C0VDdwWAAAf5x493BYAYLdUNHBbAIDdUtHAbQEAdktFA7cFAMDHuUcPtwUA2C0VDdwWAGC3VDRwWwCA3VLRwG0BAPBx7tHDbQEAdktFA7cFANgtFQ3cFgBgt1Q0cFsAAHyce/RwWwCA3VLRwG0BAHZLRQO3BQDYLRUN3BYAAB/nHj3cFgBgt1Q0cFsAgN1S0cBtAQB2S0UDtwUAwMe5Rw+3BQDYLRUN3BYAYLdUNHBbAIDdUtHAbQEA8HHu0cNtAQB2S0UDtwUA2C0VDdwWAGC3VDRwWwAAfJx79HBbAIDdUtHAbQEAdktFA7cFANgtFQ3cFgAAH+cePdwWAGC3VDRwWwCA3VLRwG0BAHZLRQO3BQDAx7lHD7cFANgtFQ3cFgBgt1Q0cFsAgN1S0cBtAQDwce7Rw20BAHZLRQO3BQDYLRUN3BYAYLdUNHBbAAB8nHv0cFsAgN1S0cBtAQB2S0UDtwUA2C0VDdwWAAAf5x493BYAYLdUNHBbAIDdUtHAbQEAdktFA7cFAMDHuUcPtwUA2C0VDdwWAGC3VDRwWwCA3VLRwG0BAPBx7tHDbQEAdktFA7cFANgtFQ3cFgBgt1Q0cFsAAHyce/RwWwCA3VLRwG0BAHZLRQO3BQDYLRUN3BYAAB/nHj3cFgBgt1Q0cFsAgN1S0cBtAQB2S0UDtwUAwMe5Rw+3BQDYLRUN3BYAYLdUNHBbAIDdUtHAbQEA8HHu0cNtAQB2S0UDtwUA2C0VDdwWAGC3VDRwWwAAfJx79HBbAIDdUtHAbQEAdktFA7cFANgtFQ3cFgAAH+cePdwWAGC3VDRwWwCA3VLRwG0BAHZLRQO3BQDAx7lHD7cFANgtFQ3cFgBgt1Q0cFsAgN1S0cBtAQDwce7Rw20BAHZLRQO3BQDYLRUN3BYAYLdUNHBbAAB8nHv0cFsAgN1S0cBtAQB2S0UDtwUA2C0VDdwWAAAf5x493BYAYLdUNHBbAIDdUtHAbQEAdktFA7cFAMDHuUcPtwUA2C0VDdwWAGC3VDRwWwCA3VLRwG0BAPBx7tHDbQEAdktFA7cFANgtFQ3cFgBgt1Q0cFsAAHyce/RwWwCA3VLRwG0BAHZLRQO3BQDYLRUN3BYAAB/nHj3cFgBgt1Q0cFsAgN1S0cBtAQB2S0UDtwUAwMe5Rw+3BQDYLRUN3BYAYLdUNHBbAIDdUtHAbQEA8HHu0cNtAQB2S0UDtwUA2C0VDdwWAGC3VDRwWwAAfJx79HBbAIDdUtHAbQEAdktFA7cFANgtFQ3cFgAAH+cePdwWAGC3VDRwWwCA3VLRwG0BAHZLRQO3BQDAx7lHD7cFANgtFQ3cFgBgt1Q0cFsAgN1S0cBtAQDwce7Rw20BAHZLRQO3BQDYLRUN3BYAYLdUNHBbAAB8nHv0cFsAgN1S0cBtAQB2S0UDtwUA2C0VDdwWAAAf5x493BYAYLdUNHBbAIDdUtHAbQEAdktFA7cFAMDHuUcPtwUA2C0VDdwWAGC3VDRwWwCA3VLRwG0BAPBx7tHDbQEAdktFA7cFANgtFQ3cFgBgt1Q0cFsAAHyce/RwWwCA3VLRwG0BAHZLRQO3BQDYLRUN3BYAAB/nHj3cFgBgt1Q0cFsAgN1S0cBtAQB2S0UDtwUAwMe5Rw+3BQDYLRUN3BYAYLdUNHBbAIDdUtHAbQEA8HHu0cNtAQB2S0UDtwUA2C0VDdwWAGC3VDRwWwAAfJx79HBbAIDdUtHAbQEAdktFA7cFANgtFQ3cFgAAH+cePdwWAGC3VDRwWwCA3VLRwG0BAHZLRQO3BQDAx7lHD7cFANgtFQ3cFgBgt1Q0cFsAgN1S0cBtAQDwce7Rw20BAHZLRQO3BQDYLRUN3BYAYLdUNHBbAAB8nHv0cFsAgN1S0cBtAQB2S0UDtwUA2C0VDdwWAAAf5x493BYAYLdUNHBbAIDdUtHAbQEAdktFA7cFAMDHuUcPtwUA2C0VDdwWAGC3VDRwWwCA3VLRwG0BAPBx7tHDbQEAdktFA7cFANgtFQ3cFgBgt1Q0cFsAAHyce/RwWwCA3VLRwG0BAHZLRQO3BQDYLRUN3BYAAB/nHj3cFgBgt1Q0cFsAgN1S0cBtAQB2S0UDtwUAwMe5Rw+3BQDYLRUN3BYAYLdUNHBbAIDdUtHAbQEA8HHu0cNtAQB2S0UDtwUA2C0VDdwWAGC3VDRwWwAAfJx79HBbAIDdUtHAbQEAdktFA7cFANgtFQ3cFgAAH+cePdwWAGC3VDRwWwCA3VLRwG0BAHZLRQO3BQDAx7lHD7cFANgtFQ3cFgBgt1Q0cFsAgN1S0cBtAQDwce7Rw20BAHZLRQO3BQDYLRUN3BYAYLdUNHBbAAB8nHv0cFsAgN1S0cBtAQB2S0UDtwUA2C0VDdwWAAAf5x493BYAYLdUNHBbAIDdUtHAbQEAdktFA7cFAMDHuUcPtwUA2C0VDdwWAGC3VDRwWwCA3VLRwG0BAPBx7tHDbQEAdktFA7cFANgtFQ3cFgBgt1Q0cFsAAHyce/RwWwCA3VLRwG0BAHZLRQO3BQDYLRUN3BYAAB/nHj3cFgBgt1Q0cFsAgN1S0cBtAQB2S0UDtwUAwMe5Rw+3BQDYLRUN3BYAYLdUNHBbAIDdUtHAbQEA8HHu0cNtAQB2S0UDtwUA2C0VDdwWAGC3VDRwWwAAfJx79HBbAIDdUtHAbQEAdktFA7cFANgtFQ3cFgAAH+cePdwWAGC3VDRwWwCA3VLRwG0BAHZLRQO3BQDAx7lHD7cFANgtFQ3cFgBgt1Q0cFsAgN1S0cBtAQDwce7Rw20BAHZLRQO3BQDYLRUN3BYAYLdUNHBbAAB8nHv0cFsAgN1S0cBtAQB2S0UDtwUA2C0VDdwWAAAf5x493BYAYLdUNHBbAIDdUtHAbQEAdktFA7cFAMDHuUcPtwUA2C0VDdwWAGC3VDRwWwCA3VLRwG0BAPBx7tHDbQEAdktFA7cFANgtFQ3cFgBgt1Q0cFsAAHyce/RwWwCA3VLRwG0BAHZLRQO3BQDYLRUN3BYAAB/nHj3cFgBgt1Q0cFsAgN1S0cBtAQB2S0UDtwUAwMe5Rw+3BQDYLRUN3BYAYLdUNHBbAIDdUtHAbQEA8HHu0cNtAQB2S0UDtwUA2C0VDdwWAGC3VDRwWwAAfJx79HBbAIDdUtHAbQEAdktFA7cFANgtFQ3cFgAAH+cePdwWAGC3VDRwWwCA3VLRwG0BAHZLRQO3BQDAx7lHD7cFANgtFQ3cFgBgt1Q0cFsAgN1S0cBtAQDwce7Rw20BAHZLRQO3BQDYLRUN3BYAYLdUNHBbAAB8nHv0cFsAgN1S0cBtAQB2S0UDtwUA2C0VDdwWAAAf5x493BYAYLdUNHBbAIDdUtHAbQEAdktFA7cFAMDHuUcPtwUA2C0VDdwWAGC3VDRwWwCA3VLRwG0BAPBx7tHDbQEAdktFA7cFANgtFQ3cFgBgt1Q0cFsAAHyce/RwWwCA3VLRwG0BAHZLRQO3BQDYLRUN3BYAAB/nHj3cFgBgt1Q0cFsAgN1S0cBtAQB2S0UDtwUAwMe5Rw+3BQDYLRUN3BYAYLdUNHBbAIDdUtHAbQEA8HHu0cNtAQB2S0UDtwUA2C0VDdwWAGC3VDRwWwAAfJx79HBbAIDdUtHAbQEAdktFA7cFANgtFQ3cFgAAH+cePdwWAGC3VDRwWwCA3VLRwG0BAHZLRQO3BQDAx7lHD7cFANgtFQ3cFgBgt1Q0cFsAgN1S0cBtAQDwce7Rw20BAHZLRQO3BQDYLRUN3BYAYLdUNHBbAAB8nHv0cFsAgN1S0cBtAQB2S0UDtwUA2C0VDdwWAAAf5x493BYAYLdUNHBbAIDdUtHAbQEAdktFA7cFAMDHuUcPtwUA2C0VDdwWAGC3VDRwWwCA3VLRwG0BAPBx7tHDbQEAdktFA7cFANgtFQ3cFgBgt1Q0cFsAAHyce/RwWwCA3VLRwG0BAHZLRQO3BQDYLRUN3BYAAB/nHj3cFgBgt1Q0cFsAgN1S0cBtAQB2S0UDtwUAwMe5Rw+3BQDYLRUN3BYAYLdUNHBbAIDdUtHAbQEA8HHu0cNtAQB2S0UDtwUA2C0VDdwWAGC3VDRwWwAAfJx79HBbAIDdUtHAbQEAdktFA7cFANgtFQ3cFgAAH+cePdwWAGC3VDRwWwCA3VLRwG0BAHZLRQO3BQDAx7lHD7cFANgtFQ3cFgBgt1Q0cFsAgN1S0cBtAQDwce7Rw20BAHZLRQO3BQDYLRUN3BYAYLdUNHBbAAB8nHv0cFsAgN1S0cBtAQB2S0UDtwUA2C0VDdwWAAAf5x493BYAYLdUNHBbAIDdUtHAbQEAdktFA7cFAMDHuUcPtwUA2C0VDdwWAGC3VDRwWwCA3VLRwG0BAPBx7tHDbQEAdktFA7cFANgtFQ3cFgBgt1Q0cFsAAHyce/RwWwCA3VLRwG0BAHZLRQO3BQDYLRUN3BYAAB/nHj3cFgBgt1Q0cFsAgN1S0cBtAQB2S0UDtwUAwMe5Rw+3BQDYLRUN3BYAYLdUNHBbAIDdUtHAbQEA8HHu0cNtAQB2S0UDtwUA2C0VDdwWAGC3VDRwWwAAfJx79HBbAIDdUtHAbQEAdktFA7cFANgtFQ3cFgAAH+cePdwWAGC3VDRwWwCA3VLRwG0BAHZLRQO3BQDAx7lHD7cFANgtFQ3cFgBgt1Q0cFsAgN1S0cBtAQDwce7Rw20BAHZLRQO3BQDYLRUN3BYAYLdUNHBbAAB8nHv0cFsAgN1S0cBtAQB2S0UDtwUA2C0VDdwWAAAf5x493BYAYLdUNHBbAIDdUtHAbQEAdktFA7cFAMDHuUcPtwUA2C0VDdwWAGC3VDRwWwCA3VLRwG0BAPBx7tHDbQEAdktFA7cFANgtFQ3cFgBgt1Q0cFsAAHyce/RwWwCA3VLRwG0BAHZLRQO3BQDYLRUN3BYAAB/nHj3cFgBgt1Q0cFsAgN1S0cBtAQB2S0UDtwUAwMe5Rw+3BQDYLRUN3BYAYLdUNHBbAIDdUtHAbQEA8HHu0cNtAQB2S0UDtwUA2C0VDdwWAGC3VDRwWwAAfJx79HBbAIDdUtHAbQEAdktFA7cFANgtFQ3cFgAAH+cePdwWAGC3VDRwWwCA3VLRwG0BAHZLRQO3BQDAx7lHD7cFANgtFQ3cFgBgt1Q0cFsAgN1S0cBtAQDwce7Rw20BAHZLRQO3BQDYLRUN3BYAYLdUNHBbAAB8nHv0cFsAgN1S0cBtAQB2S0UDtwUA2C0VDdwWAAAf5x493BYAYLdUNHBbAIDdUtHAbQEAdktFA7cFAMDHuUcPtwUA2C0VDdwWAGC3VDRwWwCA3VLRwG0BAPBx7tHDbQEAdktFA7cFANgtFQ3cFgBgt1Q0cFsAAHyce/RwWwCA3VLRwG0BAHZLRQO3BQDYLRUN3BYAAB/nHj3cFgBgt1Q0cFsAgN1S0cBtAQB2S0UDtwUAwMe5Rw+3BQDYLRUN3BYAYLdUNHBbAIDdUtHAbQEA8HHu0cNtAQB2S0UDtwUA2C0VDdwWAGC3VDRwWwAAfJx79HBbAIDdUtHAbQEAdktFA7cFANgtFQ3cFgAAH+cePdwWAGC3VDRwWwCA3VLRwG0BAHZLRQO3BQDAx7lHD7cFANgtFQ3cFgBgt1Q0cFsAgN1S0cBtAQDwce7Rw20BAHZLRQO3BQDYLRUN3BYAYLdUNHBbAAB8nHv0cFsAgN1S0cBtAQB2S0UDtwUA2C0VDdwWAAAf5x493BYAYLdUNHBbAIDdUtHAbQEAdktFA7cFAMDHuUcPtwUA2C0VDdwWAGC3VDRwWwCA3VLRwG0BAPBx7tHDbQEAdktFA7cFANgtFQ3cFgBgt1Q0cFsAAHyce/RwWwCA3VLRwG0BAHZLRQO3BQDYLRUN3BYAAB/nHj3cFgBgt1Q0cFsAgN1S0cBtAQB2S0UDtwUAwMe5Rw+3BQDYLRUN3BYAYLdUNHBbAIDdUtHAbQEA8HHu0cNtAQB2S0UDtwUA2C0VDdwWAGC3VDRwWwAAfJx79HBbAIDdUtHAbQEAdktFA7cFANgtFQ3cFgAAH+cePdwWAGC3VDRwWwCA3VLRwG0BAHZLRQO3BQDAx7lHD7cFANgtFQ3cFgBgt1Q0cFsAgN1S0cBtAQDwce7Rw20BAHZLRQO3BQDYLRUN3BYAYLdUNHBbAAB8nHv0cFsAgN1S0cBtAQB2S0UDtwUA2C0VDdwWAAAf5x493BYAYLdUNHBbAIDdUtHAbQEAdktFA7cFAMDHuUcPtwUA2C0VDdwWAGC3VDRwWwCA3VLRwG0BAPBx7tHDbQEAdktFA7cFANgtFQ3cFgBgt1Q0cFsAAHyce/RwWwCA3VLRwG0BAHZLRQO3BQDYLRUN3BYAAB/nHj3cFgBgt1Q0cFsAgN1S0cBtAQB2S0UDtwUAwMe5Rw+3BQDYLRUN3BYAYLdUNHBbAIDdUtHAbQEA8HHu0cNtAQB2S0UDtwUA2C0VDdwWAGC3VDRwWwAAfJx79HBbAIDdUtHAbQEAdktFA7cFANgtFQ3cFgAAH+cePdwWAGC3VDRwWwCA3VLRwG0BAHZLRQO3BQDAx7lHD7cFANgtFQ3cFgBgt1Q0cFsAgN1S0cBtAQDwce7Rw20BAHZLRQO3BQDYLRUN3BYAYLdUNHBbAAB8nHv0cFsAgN1S0cBtAQB2S0UDtwUA2C0VDdwWAAAf5x493BYAYLdUNHBbAIDdUtHAbQEAdktFA7cFAMDHuUcPtwUA2C0VDdwWAGC3VDRwWwCA3VLRwG0BAPBx7tHDbQEAdktFA7cFANgtFQ3cFgBgt1Q0cFsAAHyce/RwWwCA3VLRwG0BAHZLRQO3BQDYLRUN3BYAAB/nHj3cFgBgt1Q0cFsAgN1S0cBtAQB2S0UDtwUAwMe5Rw+3BQDYLRUN3BYAYLdUNHBbAIDdUtHAbQEA8HHu0cNtAQB2S0UDtwUA2C0VDdwWAGC3VDRwWwAAfJx79HBbAIDdUtHAbQEAdktFA7cFANgtFQ3cFgAAH+cePdwWAGC3VDRwWwCA3VLRwG0BAHZLRQO3BQDAx7lHD7cFANgtFQ3cFgBgt1Q0cFsAgN1S0cBtAQDwce7Rw20BAHZLRQO3BQDYLRUN3BYAYLdUNHBbAAB8nHv0cFsAgN1S0cBtAQB2S0UDtwUA2C0VDdwWAAAf5x493BYAYLdUNHBbAIDdUtHAbQEAdktFA7cFAMDHuUcPtwUA2C0VDdwWAGC3VDRwWwCA3VLRwG0BAPBx7tHDbQEAdktFA7cFANgtFQ3cFgBgt1Q0cFsAAHyce/RwWwCA3VLRwG0BAHZLRQO3BQDYLRUN3BYAAB/nHj3cFgBgt1Q0cFsAgN1S0cBtAQB2S0UDtwUAwMe5Rw+3BQDYLRUN3BYAYLdUNHBbAIDdUtHAbQEA8HHu0cNtAQB2S0UDtwUA2C0VDdwWAGC3VDRwWwAAfJx79HBbAIDdUtHAbQEAdktFA7cFANgtFQ3cFgAAH+cePdwWAGC3VDRwWwCA3VLRwG0BAHZLRQO3BQDAx7lHD7cFANgtFQ3cFgBgt1Q0cFsAgN1S0cBtAQDwce7Rw20BAHZLRQO3BQDYLRUN3BYAYLdUNHBbAAB8nHv0cFsAgN1S0cBtAQB2S0UDtwUA2C0VDdwWAAAf5x493BYAYLdUNHBbAIDdUtHAbQEAdktFA7cFAMDHuUcPtwUA2C0VDdwWAGC3VDRwWwCA3VLRwG0BAPBx7tHDbQEAdktFA7cFANgtFQ3cFgBgt1Q0cFsAAHyce/RwWwCA3VLRwG0BAHZLRQO3BQDYLRUN3BYAAB/nHj3cFgBgt1Q0cFsAgN1S0cBtAQB2S0UDtwUAwMe5Rw+3BQDYLRUN3BYAYLdUNHBbAIDdUtHAbQEA8HHu0cNtAQB2S0UDtwUA2C0VDdwWAGC3VDRwWwAAfJx79HBbAIDdUtHAbQEAdktFA7cFANgtFQ3cFgAAH+cePdwWAGC3VDRwWwCA3VLRwG0BAHZLRQO3BQDAx7lHD7cFANgtFQ3cFgBgt1Q0cFsAgN1S0cBtAQDwce7Rw20BAHZLRQO3BQDYLRUN3BYAYLdUNHBbAAB8nHv0cFsAgN1S0cBtAQB2S0UDtwUA2C0VDdwWAAAf5x493BYAYLdUNHBbAIDdUtHAbQEAdktFA7cFAMDHuUcPtwUA2C0VDdwWAGC3VDRwWwCA3VLRwG0BAPBx7tHDbQEAdktFA7cFANgtFQ3cFgBgt1Q0cFsAAHyce/RwWwCA3VLRwG0BAHZLRQO3BQDYLRUN3BYAAB/nHj3cFgBgt1Q0cFsAgN1S0cBtAQB2S0UDtwUAwMe5Rw+3BQDYLRUN3BYAYLdUNHBbAIDdUtHAbQEA8HHu0cNtAQB2S0UDtwUA2C0VDdwWAGC3VDRwWwAAfJx79HBbAIDdUtHAbQEAdktFA7cFANgtFQ3cFgAAH+cePdwWAGC3VDRwWwCA3VLRwG0BAHZLRQO3BQDAx7lHD7cFANgtFQ3cFgBgt1Q0cFsAgN1S0cBtAQDwce7Rw20BAHZLRQO3BQDYLRUN3BYAYLdUNHBbAAB8nHv0cFsAgN1S0cBtAQB2S0UDtwUA2C0VDdwWAAAf5x493BYAYLdUNHBbAIDdUtHAbQEAdktFA7cFAMDHuUcPtwUA2C0VDdwWAGC3VDRwWwCA3VLRwG0BAPBx7tHDbQEAdktFA7cFANgtFQ3cFgBgt1Q0cFsAAHyce/RwWwCA3VLRwG0BAHZLRQO3BQDYLRUN3BYAAB/nHj3cFgBgt1Q0cFsAgN1S0cBtAQB2S0UDtwUAwMe5Rw+3BQDYLRUN3BYAYLdUNHBbAIDdUtHAbQEA8HHu0cNtAQB2S0UDtwUA2C0VDdwWAGC3VDRwWwAAfJx79HBbAIDdUtHAbQEAdktFA7cFANgtFQ3cFgAAH+cePdwWAGC3VDRwWwCA3VLRwG0BAHZLRQO3BQDAx7lHD7cFANgtFQ3cFgBgt1Q0cFsAgN1S0cBtAQDwce7Rw20BAHZLRQO3BQDYLRUN3BYAYLdUNHBbAAB8nHv0cFsAgN1S0cBtAQB2S0UDtwUA2C0VDdwWAAAf5x493BYAYLdUNHBbAIDdUtHAbQEAdktFA7cFAMDHuUcPtwUA2C0VDdwWAGC3VDRwWwCA3VLRwG0BAPBx7tHDbQEAdktFA7cFANgtFQ3cFgBgt1Q0cFsAAHyce/RwWwCA3VLRwG0BAHZLRQO3BQDYLRUN3BYAAB/nHj3cFgBgt1Q0cFsAgN1S0cBtAQB2S0UDtwUAwMe5Rw+3BQDYLRUN3BYAYLdUNHBbAIDdUtHAbQEA8HHu0cNtAQB2S0UDtwUA2C0VDdwWAGC3VDRwWwAAfJx79HBbAIDdUtHAbQEAdktFA7cFANgtFQ3cFgAAH+cePdwWAGC3VDRwWwCA3VLRwG0BAHZLRQO3BQDAx7lHD7cFANgtFQ3cFgBgt1Q0cFsAgN1S0cBtAQDwce7Rw20BAHZLRQO3BQDYLRUN3BYAYLdUNHBbAAB8nHv0cFsAgN1S0cBtAQB2S0UDtwUA2C0VDdwWAAAf5x493BYAYLdUNHBbAIDdUtHAbQEAdktFA7cFAMDHuUcPtwUA2C0VDdwWAGC3VDRwWwCA3VLRwG0BAPBx7tHDbQEAdktFA7cFANgtFQ3cFgBgt1Q0cFsAAHyce/RwWwCA3VLRwG0BAHZLRQO3BQDYLRUN3BYAAB/nHj3cFgBgt1Q0cFsAgN1S0cBtAQB2S0UDtwUAwMe5Rw+3BQDYLRUN3BYAYLdUNHBbAIDdUtHAbQEA8HHu0cNtAQB2S0UDtwUA2C0VDdwWAGC3VDRwWwAAfJx79HBbAIDdUtHAbQEAdktFA7cFANgtFQ1+7MGxDeU6EkTRKlOgrZQUBcPrKBTS+Bq31vqAnAa4zgBPvOe4LAAA/uOch15cFgBgb5lRw2UBAPaWGTVcFgBgb5lRw2UBAPAf5zz04rIAAHvLjBouCwCwt8yo4bIAAHvLjBouCwCA/zjnoReXBQDYW2bUcFkAgL1lRg2XBQDYW2bUcFkAAPzHOQ+9uCwAwN4yo4bLAgDsLTNquCwAwN4yo4bLAgDgP8556MVlAQD2lhk1XBYAYG+ZUcNlAQD2lhk1XBYAAP9xzkNvf/4KwFf4HgL+f5lRw2UBAPaWGTVcFgBgb5lRw2UB/79cjwB8kXMeevvzVwC+xfcQ8P/IjBouCwCwt8yo4bIAAHvLjBouC/h/5HoE4Luc89Dbn78C8Dm+h4BlmVHDZQEA9pYZNVwWAGBvmVHDZWHx1lcAACAASURBVAHLcj0C8GnOeejtz18B+BzfQ8CyzKjhsgAAe8uMGi4LALC3zKjhsoBluR4B+DTnPPT2568AfJHvIWBNZtRwWQCAvWVGDZcFANhbZtRwWcCaXI8AfJ1zHnr781cAvsj3ELAmM2q4LADA3jKjhssCAOwtM2q4LGBNrkcAvs45D739+SsAX+R7CFiTGTVcFgBgb5lRw2UBAPaWGTVcFrAm1yMAX+ech97+/BWAL/I9BKzJjBouCwCwt8yo4bIAAHvLjBouC1iT6xGAr3POQ29//grAF/keAtZkRg2XBQDYW2bUcFkAgL1lRg2XBazJ9QjA1znnoReXBeBn5XrU8D0ErMmMGi4LALC3zKjhsgAAe8uMGi4LWJPrUcP3EIBPcM5DLy4LwM/K9ajhewhYkxk1XBYAYG+ZUcNlAQD2lhk1XBawJtejhu8hAJ/gnIdeXBaAn5XrUcP3ELAmM2q4LADA3jKjhssCAOwtM2q4LGBNrkcN30MAPsE5D724LAA/K9ejhu8hYE1m1HBZAIC9ZUYNlwUA2Ftm1HBZwJpcjxq+hwB8gnMeenFZAH5WrkcN30PAmsyo4bIAAHvLjBouCwCwt8yo4bKANbkeNXwPAfgE5zz04rIA/Kxcjxq+h4A1mVHDZQEA9pYZNVwWAGBvmVHDZQFrcj1q+B4C8AnOeejFZQH4WbkeNXwPAWsyo4bLAgDsLTNquCwAwN4yo4bLAtbketTwPQTgE5zz0IvLAvCzcj1q+B4C1mRGDZcFANhbZtRwWQCAvWVGDZcFrMn1qOF7CMAnOOehF5cF4GfletTwPQSsyYwaLgsAsLfMqOGyAAB7y4waLgtYk+tRw/cQgE9wzkMvLgvAz8r1qOF7CFiTGTVcFgBgb5lRw2UBAPaWGTVcFrAm16OG7yEAn+Cch15cFoCfletRw/cQsCYzargsAMDeMqOGywIA7C0zargsYE2uRw3fQwA+wTkPvbgsAD8r16OG7yFgTWbUcFkAgL1lRg2XBQDYW2bUcFnAmlyPGr6HAHyCcx56cVkAflauRw3fQ8CazKjhsgAAe8uMGi4LALC3zKjhsoA1uR41fA8B+ATnPPTisgD8rFyPGr6HgDWZUcNlAQD2lhk1XBYAYG+ZUcNlAWtyPWr4HgLwCc556MVlAfhZuR41fA8BazKjhssCAOwtM2q4LADA3jKjhssC1uR61PA9BOATnPPQi8sC8LNyPWr4HgLWZEYNlwUA2Ftm1HBZAIC9ZUYNlwWsyfWo4XsIwCc456EXlwXgZ+V61PA9BKzJjBouCwCwt8yo4bIAAHvLjBouC1iT61HD9xCAT3DOQy8uC8DPyvWo4XsIWJMZNVwWAGBvmVHDZQEA9pYZNVwWsCbXo4bvIQCf4JyHXlwWgJ+V61HD9xCwJjNquCwAwN4yo4bLAgDsLTNquCxgTa5HDd9DAD7BOQ+9uCwAPyvXo4bvIWBNZtRwWQCAvWVGDZcFANhbZtRwWcCaXI8avocAfIJzHnpxWQB+Vq5HDd9DwJrMqOGyAAB7y4waLgsAsLfMqOGygDW5HjV8DwH4BOc89OKyAPysXI8avoeANZlRw2UBAPaWGTVcFgBgb5lRw2UBa3I9avgeAvAJznnoxWUB+Fm5HjV8DwFrMqOGywIA7C0zargsAMDeMqOGywLW5HrU8D0E4BOc89CLywLws3I9avgeAtZkRg2XBQDYW2bUcFkAgL1lRg2XBazJ9ajhewjAJzjnoReXBeBn5XrU8D0ErMmMGi4LALC3zKjhsgAAe8uMGi4LWJPrUcP3EIBPcM5DLy4LwM/K9ajhewhYkxk1XBYAYG+ZUcNlAQD2lhk1XBawJtejhu8hAJ/gnIdeXBaAn5XrUcP3ELAmM2q4LADA3jKjhssCAOwtM2q4LGBNrkcN30MAPsE5D724LAA/K9ejhu8hYE1m1HBZAIC9ZUYNlwUA2Ftm1HBZwJpcjxq+hwB8gnMeenFZAH5WrkcN30PAmsyo4bIAAHvLjBouCwCwt8yo4bKANbkeNXwPAfgE5zz04rIA/Kxcjxq+h4A1mVHDZQEA9pYZNVwWAGBvmVHDZQFrcj1q+B4C8AnOeejFZQH4WbkeNXwPAWsyo4bLAgDsLTNquCwAwN4yo4bLAtbketTwPQTgE5zz0IvLAvCzcj1q+B4C1mRGDZcFANhbZtRwWQCAvWVGDZcFrMn1qOF7CMAnOOehF5cF4GfletTwPQSsyYwaLgsAsLfMqOGyAAB7y4waLgtYk+tRw/cQgE9wzkMvLgvAz8r1qOF7CFiTGTVcFgBgb5lRw2UBAPaWGTVcFrAm16OG7yEAn+Cch15cFoCfletRw/cQsCYzargsAMDeMqOGywIA7C0zargsYE2uRw3fQwA+wTkPvbgsAD8r16OG7yFgTWbUcFkAgL1lRg2XBQDYW2bUcFnAmlyPGr6HAHyCcx56cVkAflauRw3fQ8CazKjhsgAAe8uMGi4LALC3zKjhsoA1uR41fA8B+ATnPPTisgD8rFyPGr6HgDWZUcNlAQD2lhk1XBYAYG+ZUcNlAWtyPWr4HgLwCc556MVlAfhZuR41fA8BazKjhssCAOwtM2q4LADA3jKjhssC1uR61PA9BOATnPPQi8sC8LNyPWr4HgLWZEYNlwUA2Ftm1HBZAIC9ZUYNlwWsyfWo4XsIwCc456EXlwXgZ+V61PA9BKzJjBouCwCwt8yo4bIAAHvLjBouC1iT61HD9xCAT3DOQy8uC8DPyvWo4XsIWJMZNVwWAGBvmVHDZQEA9pYZNVwWsCbXo4bvIQCf4JyHXlwWgJ+V61HD9xCwJjNquCwAwN4yo4bLAgDsLTNquCxgTa5HDd9DAD7BOQ+9uCwAPyvXo4bvIWBNZtRwWQCAvWVGDZcFANhbZtRwWcCaXI8avocAfIJzHnpxWQB+Vq5HDd9DwJrMqOGyAAB7y4waLgsAsLfMqOGygDW5HjV8DwH4BOc89OKyAPysXI8avoeANZlRw2UBAPaWGTVcFgBgb5lRw2UBa3I9avgeAvAJznnoxWUB+Fm5HjV8DwFrMqOGywIA7C0zargsAMDeMqOGywLW5HrU8D0E4BOc89CLywLws3I9avgeAtZkRg2XBQDYW2bUcFkAgL1lRg2XBazJ9ajhewjAJzjnoReXBeBn5XrU8D0ErMmMGi4LALC3zKjhsgAAe8uMGi4LWJPrUcP3EIBPcM5DLy4LwM/K9ajhewhYkxk1XBYAYG+ZUcNlAQD2lhk1XBawJtejhu8hAJ/gnIdeXBaAn5XrUcP3ELAmM2q4LADA3jKjhssCAOwtM2q4LGBNrkcN30MAPsE5D724LAA/K9ejhu8hYE1m1HBZAIC9ZUYNlwUA2Ftm1HBZwJpcjxq+hwB8gnMeenFZAH5WrkcN30PAmsyo4bIAAHvLjBouCwCwt8yo4bKANbkeNXwPAfgE5zz04rIA/Kxcjxq+h4A1mVHDZQEA9pYZNVwWAGBvmVHDZQFrcj1q+B4C8AnOeejFZQH4WbkeNXwPAWsyo4bLAgDsLTNquCwAwN4yo4bLAtbketTwPQTgE5zzEAAAAAAAAAAAwL/inIcAAAAAAAAAAAD+Fec8BAAAAAAAAAAA8K845yEAAAAAAAAAAIB/xTkPAQAAAAAAAAAA/CvOeQgAAAAAAAAAAOBfcc5DAAAAAAAAAAAA/4pzHgIAAAAAAAAAAPhXnPMQAAAAAAAAAADAv+Kch15cFoCfletRw/cQsCYzargsAMDeMqOGywIA7C0zargsYE2uRw3fQwA+wTkPvbgsAD8r16OG7yFgTWbUcFkAgL1lRg2XBQDYW2bUcFnAmlyPGr6HAHyCcx56cVkAflauRw3fQ8CazKjhsgAAe8uMGi4LALC3zKjhsoA1uR41fA8B+ATnPPTisgD8rFyPGr6HgDWZUcNlAQD2lhk1XBYAYG+ZUcNlAWtyPWr4HgLwCc556MVlAfhZuR41fA8BazKjhssCAOwtM2q4LADA3jKjhssC1uR61PA9BOATnPPQi8sC8LNyPWr4HgLWZEYNlwUA2Ftm1HBZAIC9ZUYNlwWsyfWo4XsIwCc456EXlwXgZ+V61PA9BKzJjBouCwCwt8yo4bIAAHvLjBouC1iT61HD9xCAT3DOQy8uC8DPyvWo4XsIWJMZNVwWAGBvmVHDZQEA9pYZNVwWsCbXo4bvIQCf4JyHXlwWgJ+V61HD9xCwJjNquCwAwN4yo4bLAgDsLTNquCxgTa5HDd9DAD7BOQ+9uCwAPyvXo4bvIWBNZtRwWQCAvWVGDZcFANhbZtRwWcCaXI8avocAfIJzHnpxWQB+Vq5HDd9DwJrMqOGyAAB7y4waLgsAsLfMqOGygDW5HjV8DwH4BOc89OKyAPysXI8avoeANZlRw2UBAPaWGTVcFgBgb5lRw2UBa3I9avgeAvAJznnoxWUB+Fm5HjV8DwFrMqOGywIA7C0zargsAMDeMqOGywLW5HrU8D0E4BOc89CLywLws3I9avgeAtZkRg2XBQDYW2bUcFkAgL1lRg2XBazJ9ajhewjAJzjnoReXBeBn5XrU8D0ErMmMGi4LALC3zKjhsgAAe8uMGi4LWJPrUcP3EIBPcM5DLy4LwM/K9ajhewhYkxk1XBYAYG+ZUcNlAQD2lhk1XBawJtejhu8hAJ/gnIdeXBaAn5XrUcP3ELAmM2q4LADA3jKjhssCAOwtM2q4LGBNrkcN30MAPsE5D724LAA/K9ejhu8hYE1m1HBZAIC9ZUYNlwUA2Ftm1HBZwJpcjxq+hwB8gnMeenFZAH5WrkcN30PAmsyo4bIAAHvLjBouCwCwt8yo4bKANbkeNXwPAfgE5zz04rIA/Kxcjxq+h4A1mVHDZQEA9pYZNVwWAGBvmVHDZQFrcj1q+B4C8AnOeejFZQH4WbkeNXwPAWsyo4bLAgDsLTNquCwAwN4yo4bLAtbketTwPQTgE5zz0IvLAvCzcj1q+B4C1mRGDZcFANhbZtRwWQCAvWVGDZcFrMn1qOF7CMAnOOehF5cF4GfletTwPQSsyYwaLgsAsLfMqOGyAAB7y4waLgtYk+tRw/cQgE9wzkMvLgvAz8r1qOF7CFiTGTVcFgBgb5lRw2UBAPaWGTVcFrAm16OG7yEAn+Cch15cFoCfletRw/cQsCYzargsAMDeMqOGywIA7C0zargsYE2uRw3fQwA+wTkPvbgsAD8r16OG7yFgTWbUcFkAgL1lRg2XBQDYW2bUcFnAmlyPGr6HAHyCcx56cVkAflauRw3fQ8CazKjhsgAAe8uMGi4LALC3zKjhsoA1uR41fA8B+ATnPPTisgD8rFyPGr6HgDWZUcNlAQD2lhk1XBYAYG+ZUcNlAWtyPWr4HgLwCc556MVlAfhZuR41fA8BazKjhssCAOwtM2q4LADA3jKjhssC1uR61PA9BOATnPPQi8sC8LNyPWr4HgLWZEYNlwUA2Ftm1HBZAIC9ZUYNlwWsyfWo4XsIwCc456EXlwXgZ+V61PA9BKzJjBouCwCwt8yo4bIAAHvLjBouC1iT61HD9xCAT3DOQy8uC8DPyvWo4XsIWJMZNVwWAGBvmVHDZQEA9pYZNVwWsCbXo4bvIQCf4JyHXlwWgJ+V61HD9xCwJjNquCwAwN4yo4bLAgDsLTNquCxgTa5HDd9DAD7BOQ+9uCwAPyvXo4bvIWBNZtRwWQCAvWVGDZcFANhbZtRwWcCaXI8avocAfIJzHnpxWQB+Vq5HDd9DwJrMqOGyAAB7y4waLgsAsLfMqOGygDW5HjV8DwH4BOc89OKyAPysXI8avoeANZlRw2UBAPaWGTVcFgBgb5lRw2UBa3I9avgeAvAJznnoxWUB+Fm5HjV8DwFrMqOGywIA7C0zargsAMDeMqOGywLW5HrU8D0E4BOc89CLywLws3I9avgeAtZkRg2XBQDYW2bUcFkAgL1lRg2XBazJ9ajhewjAJzjnoReXBeBn5XrU8D0ErMmMGi4LALC3zKjhsgAAe8uMGi4LWJPrUcP3EIBPcM5DLy4LwM/K9ajhewhYkxk1XBYAYG+ZUcNlAQD2lhk1XBawJtejhu8hAJ/gnIdeXBaAn5XrUcP3ELAmM2q4LADA3jKjhssCAOwtM2q4LGBNrkcN30MAPsE5D724LAA/K9ejhu8hYE1m1HBZAIC9ZUYNlwUA2Ftm1HBZwJpcjxq+hwB8gnMeenFZAH5WrkcN30PAmsyo4bIAAHvLjBouCwCwt8yo4bKANbkeNXwPAfgE5zz04rIA/Kxcjxq+h4A1mVHDZQEA9pYZNVwWAGBvmVHDZQFrcj1q+B4C8AnOeejFZQH4WbkeNXwPAWsyo4bLAgDsLTNquCwAwN4yo4bLAtbketTwPQTgE5zz0IvLAvCzcj1q+B4C1mRGDZcFANhbZtRwWQCAvWVGDZcFrMn1qOF7CMAnOOehF5cF4GfletTwPQSsyYwaLgsAsLfMqOGyAAB7y4waLgtYk+tRw/cQgE9wzkMvLgvAz8r1qOF7CFiTGTVcFgBgb5lRw2UBAPaWGTVcFrAm16OG7yEAn+Cch15cFoCfletRw/cQsCYzargsAMDeMqOGywIA7C0zargsYE2uRw3fQwA+wTkPvbgsAD8r16OG7yFgTWbUcFkAgL1lRg2XBQDYW2bUcFnAmlyPGr6HAHyCcx56cVkAflauRw3fQ8CazKjhsgAAe8uMGi4LALC3zKjhsoA1uR41fA8B+ATnPPTisgD8rFyPGr6HgDWZUcNlAQD2lhk1XBYAYG+ZUcNlAWtyPWr4HgLwCc556MVlAfhZuR41fA8BazKjhssCAOwtM2q4LADA3jKjhssC1uR61PA9BOATnPPQi8sC8LNyPWr4HgLWZEYNlwUA2Ftm1HBZAIC9ZUYNlwWsyfWo4XsIwCc456EXlwXgZ+V61PA9BKzJjBouCwCwt8yo4bIAAHvLjBouC1iT61HD9xCAT3DOQy8uC8DPyvWo4XsIWJMZNVwWAGBvmVHDZQEA9pYZNVwWsCbXo4bvIQCf4JyHXlwWgJ+V61HD9xCwJjNquCwAwN4yo4bLAgDsLTNquCxgTa5HDd9DAD7BOQ+9uCwAPyvXo4bvIWBNZtRwWQCAvWVGDZcFANhbZtRwWcCaXI8avocAfIJzHnpxWQB+Vq5HDd9DwJrMqOGyAAB7y4waLgsAsLfMqOGygDW5HjV8DwH4BOc89OKyAPysXI8avoeANZlRw2UBAPaWGTVcFgBgb5lRw2UBa3I9avgeAvAJznnoxWUB+Fm5HjV8DwFrMqOGywIA7C0zargsAMDeMqOGywLW5HrU8D0E4BOc89CLywLws3I9avgeAtZkRg2XBQDYW2bUcFkAgL1lRg2XBazJ9ajhewjAJzjnoReXBeBn5XrU8D0ErMmMGi4LALC3zKjhsgAAe8uMGi4LWJPrUcP3EIBPcM5DLy4LwM/K9ajhewhYkxk1XBYAYG+ZUcNlAQD2lhk1XBawJtejhu8hAJ/gnIdeXBaAn5XrUcP3ELAmM2q4LADA3jKjhssCAOwtM2q4LGBNrkcN30MAPsE5D724LAA/K9ejhu8hYE1m1HBZAIC9ZUYNlwUA2Ftm1HBZwJpcjxq+hwB8gnMeenFZAH5WrkcN30PAmsyo4bIAAHvLjBouCwCwt8yo4bKANbkeNXwPAfgE5zz04rIA/Kxcjxq+h4A1mVHDZQEA9pYZNVwWAGBvmVHDZQFrcj1q+B4C8AnOeejFZQH4WbkeNXwPAWsyo4bLAgDsLTNquCwAwN4yo4bLAtbketTwPQTgE5zz0IvLAvCzcj1q+B4C1mRGDZcFANhbZtRwWQCAvWVGDZcFrMn1qOF7CMAnOOehF5cF4GfletTwPQSsyYwaLgsAsLfMqOGyAAB7y4waLgtYk+tRw/cQgE9wzkMvLgvAz8r1qOF7CFiTGTVcFgBgb5lRw2UBAPaWGTVcFrAm16OG7yEAn+Cch15cFoCfletRw/cQsCYzargsAMDeMqOGywIA7C0zargsYE2uRw3fQwA+wTkPvbgsAD8r16OG7yFgTWbUcFkAgL1lRg2XBQDYW2bUcFnAmlyPGr6HAHyCcx56cVkAflauRw3fQ8CazKjhsgAAe8uMGi4LALC3zKjhsoA1uR41fA8B+ATnPPTisgD8rFyPGr6HgDWZUcNlAQD2lhk1XBYAYG+ZUcNlAWtyPWr4HgLwCc556MVlAfhZuR41fA8BazKjhssCAOwtM2q4LADA3jKjhssC1uR61PA9BOATnPPQi8sC8LNyPWr4HgLWZEYNlwUA2Ftm1HBZAIC9ZUYNlwWsyfWo4XsIwCc456EXlwXgZ+V61PA9BKzJjBouCwCwt8yo4bIAAHvLjBouC1iT61HD9xCAT3DOQy8uC8DPyvWo4XsIWJMZNVwWAGBvmVHDZQEA9pYZNVwWsCbXo4bvIQCf4JyHXlwWgJ+V61HD9xCwJjNquCwAwN4yo4bLAgDsLTNquCxgTa5HDd9DAD7BOQ+9uCwAPyvXo4bvIWBNZtRwWQCAvWVGDZcFANhbZtRwWcCaXI8avocAfIJzHnpxWQB+Vq5HDd9DwJrMqOGyAAB7y4waLgsAsLfMqOGygDW5HjV8DwH4BOc89OKyAPysXI8avoeANZlRw2UBAPaWGTVcFgBgb5lRw2UBa3I9avgeAvAJznnoxWUB+Fm5HjV8DwFrMqOGywIA7C0zargsAMDeMqOGywLW5HrU8D0E4BOc89CLywLws3I9avgeAtZkRg2XBQDYW2bUcFkAgL1lRg2XBazJ9ajhewjAJzjnoReXBeBn5XrU8D0ErMmMGi4LALC3zKjhsgAAe8uMGi4LWJPrUcP3EIBPcM5DLy4LwM/K9ajhewhYkxk1XBYAYG+ZUcNlAQD2lhk1XBawJtejhu8hAJ/gnIdeXBaAn5XrUcP3ELAmM2q4LADA3jKjhssCAOwtM2q4LGBNrkcN30MAPsE5D724LAA/K9ejhu8hYE1m1HBZAIC9ZUYNlwUA2Ftm1HBZwJpcjxq+hwB8gnMeenFZAH5WrkcN30PAmsyo4bIAAHvLjBouCwCwt8yo4bKANbkeNXwPAfgE5zz04rIA/Kxcjxq+h4A1mVHDZQEA9pYZNVwWAGBvmVHDZQFrcj1q+B4C8AnOeejFZQH4WbkeNXwPAWsyo4bLAgDsLTNquCwAwN4yo4bLAtbketTwPQTgE5zz0IvLAvCzcj1q+B4C1mRGDZcFANhbZtRwWQCAvWVGDZcFrMn1qOF7CMAnOOehF5cF4GfletTwPQSsyYwaLgsAsLfMqOGyAAB7y4waLgtYk+tRw/cQgE9wzkMvLgvAz8r1qOF7CFiTGTVcFgBgb5lRw2UBAPaWGTVcFrAm16OG7yEAn+Cch15cFoCfletRw/cQsCYzargsAMDeMqOGywIA7C0zargsYE2uRw3fQwA+wTkPvbgsAD8r16OG7yFgTWbUcFkAgL1lRg2XBQDYW2bUcFnAmlyPGr6HAHyCcx56cVkAflauRw3fQ8CazKjhsgAAe8uMGi4LALC3zKjhsoA1uR41fA8B+ATnPPTisgD8rFyPGr6HgDWZUcNlAQD2lhk1XBYAYG+ZUcNlAWtyPWr4HgLwCc556MVlAfhZuR41fA8BazKjhssCAOwtM2q4LADA3jKjhssC1uR61PA9BOATnPPQi8sC8LNyPWr4HgLWZEYNlwUA2Ftm1HBZAIC9ZUYNlwWsyfWo4XsIwCc456EXlwXgZ+V61PA9BKzJjBouCwCwt8yo4bIAAHvLjBouC1iT61HD9xCAT3DOQy8uC8DPyvWo4XsIWJMZNVwWAGBvmVHDZQEA9pYZNVwWsCbXo4bvIQCf4JyHXlwWgJ+V61HD9xCwJjNquCwAwN4yo4bLAgDsLTNquCxgTa5HDd9DAD7BOQ+9uCwAPyvXo4bvIWBNZtRwWQCAvWVGDZcFANhbZtRwWcCaXI8avocAfIJzHnpxWQB+Vq5HDd9DwJrMqOGyAAB7y4waLgsAsLfMqOGygDW5HjV8DwH4BOc89OKyAPysXI8avoeANZlRw2UBAPaWGTVcFgBgb5lRw2UBa3I9avgeAvAJznnoxWUB+Fm5HjV8DwFrMqOGywIA7C0zargsAMDeMqOGywLW5HrU8D0E4BOc89CLywLws3I9avgeAtZkRg2XBQDYW2bUcFkAgL1lRg2XBazJ9ajhewjAJzjnoReXBeBn5XrU8D0ErMmMGi4LALC3zKjhsgAAe8uMGi4LWJPrUcP3EIBPcM5DLy4LwM/K9ajhewhYkxk1XBYAYG+ZUcNlAQD2lhk1XBawJtejhu8hAJ/gnIdeXBaAn5XrUcP3ELAmM2q4LADA3jKjhssCAOwtM2q4LGBNrkcN30MAPsE5D724LAA/K9ejhu8hYE1m1HBZAIC9ZUYNlwUA2Ftm1HBZwJpcjxq+hwB8gnMeenFZAH5WrkcN30PAmsyo4bIAAHvLjBouCwCwt8yo4bKANbkeNXwPAfgE5zz04rIA/Kxcjxq+h4A1mVHDZQEA9pYZNVwWAGBvmVHDZQFrcj1q+B4C8AnOeejFZQH4WbkeNXwPAWsyo4bLAgDsLTNquCwAwN4yo4bLAtbketTwPQTgE5zz0IvLAvCzcj1q+B4C1mRGDZcFANhbZtRwWQCAvWVGDZcFrMn1qOF7CMAnOOehF5cF4GfletTwPQSsyYwaLgsAsLfMqOGyAAB7y4waLgtYk+tRw/cQgE9wzkMvLgvAz8r1qOF7CFiTGTVcFgBgb5lRw2UBAPaWGTVcFrAm16OG7yEAn+Cch15cFoCfletRw/cQsCYzargsAMDeMqOGywIA7C0zargsYE2uRw3fQwA+wTkPvbgsAD8r16OG7yFgTWbUcFkAgL1lRg2XBQDYW2bUcFnAmlyPGr6HAHyCcx56cVkAflauRw3fQ8CazKjhsgAAnr214gAAIABJREFUe8uMGi4LALC3zKjhsoA1uR41fA8B+ATnPPTisgD8rFyPGr6HgDWZUcNlAQD2lhk1XBYAYG+ZUcNlAWtyPWr4HgLwCc556MVlAfhZuR41fA8BazKjhssCAOwtM2q4LADA3jKjhssC1uR61PA9BOATnPPQi8sC8LNyPWr4HgLWZEYNlwUA2Ftm1HBZAIC9ZUYNlwWsyfWo4XsIwCc456EXlwXgZ+V61PA9BKzJjBouCwCwt8yo4bIAAHvLjBouC1iT61HD9xCAT3DOQy8uC8DPyvWo4XsIWJMZNVwWAGBvmVHDZQEA9pYZNVwWsCbXo4bvIQCf4JyHXlwWgJ+V61HD9xCwJjNquCwAwN4yo4bLAgDsLTNquCxgTa5HDd9DAD7BOQ+9uCwAPyvXo4bvIWBNZtRwWQCAvWVGDZcFANhbZtRwWcCaXI8avocAfIJzHnpxWQB+Vq5HDd9DwJrMqOGyAAB7y4waLgsAsLfMqOGygDW5HjV8DwH4BOc89OKyAPysXI8avoeANZlRw2UBAPaWGTVcFgBgb5lRw2UBa3I9avgeAvAJznnoxWUB+Fn5H3twkBtZkisB0H2Zw3XOkXiKOF6cgkfqPXvrHxhggPzooSqUpXpSSm6WjQErYHZGSxhwE2Zm9rNpCQNuwszMfjYtYcBNmJ1RNgasgJl9C9T9hgfchJm9LGVjwAqYndESBtyEmZn9bFrCgJswM7OfTUsYcBNmZ5SNAStgZt8Cdb/hATdhZi9L2RiwAmZntIQBN2FmZj+bljDgJszM7GfTEgbchNkZZWPACpjZt0Ddb3jATZjZy1I2BqyA2RktYcBNmJnZz6YlDLgJMzP72bSEATdhdkbZGLACZvYtUPcbHnATZvaylI0BK2B2RksYcBNmZvazaQkDbsLMzH42LWHATZidUTYGrICZfQvU/YYH3ISZvSxlY8AKmJ3REgbchJmZ/WxawoCbMDOzn01LGHATZmeUjQErYGbfAnW/4QE3YWYvS9kYsAJmZ7SEATdhZmY/m5Yw4CbMzOxn0xIG3ITZGWVjwAqY2bdA3W94wE2Y2ctSNgasgNkZLWHATZiZ2c+mJQy4CTMz+9m0hAE3YXZG2RiwAmb2LVD3Gx5wE2b2spSNAStgdkZLGHATZmb2s2kJA27CzMx+Ni1hwE2YnVE2BqyAmX0L1P2GB9yEmb0sZWPACpid0RIG3ISZmf1sWsKAmzAzs59NSxhwE2ZnlI0BK2Bm3wJ1v+EBN2FmL0vZGLACZme0hAE3YWZmP5uWMOAmzMzsZ9MSBtyE2RllY8AKmNm3QN1veMBNmNnLUjYGrIDZGS1hwE2YmdnPpiUMuAkzM/vZtIQBN2F2RtkYsAJm9i1Q9xsecBNm9rKUjQErYHZGSxhwE2Zm9rNpCQNuwszMfjYtYcBNmJ1RNgasgJl9C9T9hgfchJm9LGVjwAqYndESBtyEmZn9bFrCgJswM7OfTUsYcBNmZ5SNAStgZt8Cdb/hATdhZi9L2RiwAmZntIQBN2FmZj+bljDgJszM7GfTEgbchNkZZWPACpjZt0Ddb3j019+wZ7ECZp9K2RiwAmZntIQBN2FmZj+bljDgJszM7GfTEgbchNkZZWPACph9KmXDPgJ1v+HRX3/Dfg8rYPZJlI0BK2B2RksYcBNmZvazaQkDbsLMzH42LWHATZidUTYGrIDZJ1E27ONQ9xse/fU37LexAmafQdkYsAJmZ7SEATdhZmY/m5Yw4CbMzOxn0xIG3ITZGWVjwAqYfQZlwz4Udb/h0V9/w34bK2D2GZSNAStgdkZLGHATZmb2s2kJA27CzMx+Ni1hwE2YnVE2BqyA2WdQNuxDUfcbHv31N+wjsAJml1M2BqyA2RktYcBNmJnZj6Fs/NO//4XJX3/jH1gBMzP7MbSEATdhdkbZGLACZpdTNuyjUfcbHv31N+wjsAJml1M2BqyA2RktYcBNmJnZd6FsPOHf/8Lkr7/xTqyAmZl9I1rCgJswO6NsDFgBs8spG/bRqPsNj/76G/YRWAGzyykbA1bA7IyWMOAmzMzsBSkbH+Xf/8Lkr7/xQVgBMzN7QVrCgJswO6NsDFgBs8spG/bRqPsNj/76G/YRWAGzyykbA1bA7IyWMOAmzMzsFSgbf8i//4XJX3/jj2EFzMzsy9MSBtyE2RllY8AKmF1O2bCPRt1vePTX37CPwAqYXU7ZGLACZme0hAE3YWZmX5KycY1//wuTv/7GJVgBMzP7krSEATdhdkbZGLACZpdTNuyjUfcbHnATdkzZGLACZpdTNgasgNkZLWHATZiZ2ZehbFzv3//C5K+/8RlYATMz+xq0hAE3YXZG2RiwAmaXUzYGrIA9hbrf8ICbsGPKxoAVMLucsjFgBczOaAkDbsLMzD6PsvHp/v0vTP76G5+NFTAzs8+jJQy4CbMzysaAFTC7nLIxYAXsKdT9hgfchB1TNgasgNnllI0BK2B2RksYcBNmZnY5ZePr+Pe/MPnrb3wZrICZmV1OSxhwE2ZnlI0BK2B2OWVjwArYU6j7DQ+4CTumbAxYAbPLKRsDVsDsjJYw4CbMzOwqysYX9O9/YfLX3/h6WAEzM7uKljDgJszOKBsDVsDscsrGgBWwp1D3Gx5wE3ZM2RiwAmaXUzYGrIDZGS1hwE2YmdmfpGx8GazAP2gJA27iH5SNL4MVMDOzP0lLGHATZmeUjQErYHY5ZWPACthTqPsND7gJO6ZsDFgBs8spGwNWwOyMljDgJszM7A9QNj4DK/BOWsKAm3gnZeMzsAJmZvYHaAkDbsLsjLIxYAXMLqdsDFgBewp1v+EBN2HHlI0BK2B2OWVjwAqYndESBtyEmZl9HGXjEqzAB9ESBtzEB1E2/jxWwMzMPpSWMOAmzM4oGwNWwOxyysaAFbCnUPcbHnATdkzZGLACZpdTNgasgNkZLWHATZiZ2UdQNv4kVuDP0BIG3MQfoGz8YayAmZl9BC1hwE2YnVE2BqyA2eWUjQErYE+h7jc84CbsmLIxYAXMLqdsDFgBszNawoCbMDOz36Bs/BmswCW0hAE38ecpG38GK2BmZr9HSxhwE2ZnlI0BK2B2OWVjwArYU6j7DQ+4CTumbAxYAbPLKRsDVsDsjJYw4CbMzOwpysZHYwUupyUMuIlrKRt/ACtgZmZP0RIG3ITZGWVjwAqYXU7ZGLAC9hTqfsMDbsKOKRsDVsDscsrGgBUwO6MlDLgJMzN7J2XjQ7ECn0dLGHATn0fZ+FCsgJmZvZOWMOAmzM4oGwNWwOxyysaAFbCnUPcbHnATdkzZGLACZpdTNgasgNkZLWHATZiZ2Rll40OxAl+AljDgJr4AZePjsAJmZnZMSxhwE2ZnlI0BK2B2OWVjwArYU6j7DQ+4CTumbAxYAbPLKRsDVsDsjJYw4CbMzOxXlI0Pwgp8MVrCgJv4YpSND8IKmJnZr2gJA27C7IyyMWAFzC6nbAxYAXsKdb/hATdhx5SNAStgdjllY8AKmJ3REgbchJmZzZSNj8AKfFVawoCb+KqUjY/ACpiZ2UxLGHATZmeUjQErYHY5ZWPACthTqPsND7gJO6ZsDFgBs8spGwNWwOyMljDgJszM7H9RNn4bK/DlaQkDbuLLUzZ+GytgZmb/i5Yw4CbMzigbA1bA7HLKxoAVsKdQ9xsecBN2TNkYsAJml1M2BqyA2RktYcBNmJnZ/6ds/DZW4EVoCQNu4kUoG7+NFTAzs/9PSxhwE2ZnlI0BK2B2OWVjwArYU6j7DQ+4CTumbAxYAbPLKRsDVsDsjJYw4CbMzOy/lI3fwwq8Gi1hwE28GmXj97ACZmb2X1rCgJswO6NsDFgBs8spGwNWwJ5C3W94wE3YMWVjwAqYXU7ZGLACZme0hAE3YWZmgLLxe1iB16QlDLiJ16Rs/AZWwMzM/kNLGHATZmeUjQErYHY5ZWPACthTqPsND7gJO6ZsDFgBs8spGwNWwOyMljDgJszMfjxl41mswIvTEgbcxItTNp7FCpiZ/XhawoCbMDujbAxYAbPLKRsDVsCeQt1veMBN2DFlY8AKmF1O2RiwAmZntIQBN2Fm9oMpG89iBb4FLWHATXwLysazWAEzsx9MSxhwE2ZnlI0BK2B2OWVjwArYU6j7DQ+4CTumbAxYAbPLKRsDVsDsjJYw4CbMzH4qZeP9WIHvRUsYcBPfi7LxFFbAzOxH0hIG3ITZGWVjwAqYXU7ZGLAC9hTqfsMDbsKOKRsDVsDscsrGgBUwO6MlDLgJM7OfR9l4P1bgO9ISBtzEd6RsvB8rYGb282gJA27C7IyyMWAFzC6nbAxYAXsKdb/hATdhx5SNAStgdjllY8AKmJ3REgbchJnZT6JsvB8r8H1pCQNu4vtSNt6PFTAz+0m0hAE3YXZG2RiwAmaXUzYGrIA9hbrf8ICbsGPKxoAVMLucsjFgBczOaAkDbsLM7MdQNt6JFfjutIQBN/GtKRvvxwqYmf0YWsKAmzA7o2wMWAGzyykbA1bAnkLdb3jATdgxZWPACphdTtkYsAJmZ7SEATdhZvYDKBvvxwr8AFrCgJv4AZSN92MFzMx+AC1hwE2YnVE2BqyA2eWUjQErYE+h7jc84CbsmLIxYAXMLqdsDFgBszNawoCbMDP77pSNd2IFfgwtYcBN/BjKxvuxAmZm35qWMOAmzM4oGwNWwOxyysaAFbCnUPcbHnATdkzZGLACZpdTNgasgNkZLWHATZiZfV/KxjuxAj+MljDgJn4YZeOdWAEzs+9LSxhwE2ZnlI0BK2B2OWVjwArYU6j7DQ+4CTumbAxYAbPLKRsDVsDsjJYw4CbMzL4jZeOdWIEfSUsYcBM/krLxTqyAmdl3pCUMuAmzM8rGgBUwu5yyMWAF7CnU/YYH3IQdUzYGrIDZ5ZSNAStgdkZLGHATZmbfi7LxTqzAD6YlDLiJH0zZeCdWwMzse9ESBtyE2RllY8AKmF1O2RiwAvYU6n7DA27CjikbA1bA7HLKxoAVMDujJQy4CTOzb0TZeCdW4GfTEgbcxI+nbLwHK2Bm9o1oCQNuwuyMsjFgBcwup2wMWAF7CnW/4QE3YceUjQErYHY5ZWPACpid0RIG3ISZ2XehbLwHK2CAljDgJgxQNt6DFTAz+y60hAE3YXZG2RiwAmaXUzYGrIA9hbrf8ICbsGPKxoAVMLucsjFgBczOaAkDbsLM7FtQNo6xAvZfWsKAm7D/UjbegxUwM3t9WsKAmzA7o2wMWAGzyykbA1bAnkLdb3jATdgxZWPACphdTtkYsAJmZ7SEATdhZvbilI33YAXsgZYw4CbsgbLxHqyAmdmL0xIG3ITZGWVjwAqYXU7ZGLAC9hTqfsMDbsKOKRsDVsDscsrGgBUwO6MlDLgJM7NXpmwcYwXsH7SEATdh/6BsHGMFzMxemZYw4CbMzigbA1bA7HLKxoAVsKdQ9xsecBN2TNkYsAJml1M2BqyA2RktYcBNmJm9LGXjGCtg/4uWMOAmbKBsnGEFzMxelpYw4CbMzigbA1bA7HLKxoAVsKdQ9xsecBN2TNkYsAJml1M2BqyA2RktYcBNmJm9JmXjDCtgMy1hwE3YTNk4xgqYmb0gLWHATZidUTYGrIDZ5ZSNAStgT6HuNzzgJuyYsjFgBcwup2wMWAGzM1rCgJswM3s1ysYxVsDepCUMuAl7k7JxjBUwM3s1WsKAmzA7o2wMWAGzyykbA1bAnkLdb3jATdgxZWPACphdTtkYsAJmZ7SEATdhZvZSlI1jrID9ipYw4CbsgLJxhhUwM3spWsKAmzA7o2wMWAGzyykbA1bAnkLdb3jATdgxZWPACphdTtkYsAJmZ7SEATdhZvY6lI0zrICd0RIG3ISdUTbOsAJmZq9DSxhwE2ZnlI0BK2B2OWVjwArYU6j7DQ+4CTumbAxYAbPLKRsDVsDsjJYw4CbMzF6EsnGGFbBjWsKAm7BjysYZVsDM7EVoCQNuwuyMsjFgBcwup2wMWAF7CnW/4QE3YceUjQErYHY5ZWPACpid0RIG3ISZ2ZenbBxjBew9tIQBN2HvpGycYQXMzL48LWHATZidUTYGrIDZ5ZSNAStgT6HuNzzgJuyYsjFgBcwup2wMWAGzM1rCgJswM/valI0zrIC9n5Yw4Cbs/ZSNM6yAmdnXpiUMuAmzM8rGgBUwu5yyMWAF7CnU/YYH3IQdUzYGrIDZ5ZSNAStgdkZLGHATZmZfmLJxhhWwp2gJA27CnqJsnGEFzMy+MC1hwE2YnVE2BqyA2eWUjQErYE+h7jc84CbsmLIxYAXMLqdsDFgBszNawoCbMDP7qpSNM6yAPUtLGHAT9huUjQOsgJnZV6UlDLgJszPKxoAVMLucsjFgBewp1P2GB9yEHVM2BqyA2eWUjQErYHZGSxhwE2ZmX5KycYYVsN+gJQy4Cfs9ysYBVsDM7EvSEgbchNkZZWPACphdTtkYsAL2FOp+wwNuwo4pGwNWwOxyysaAFTA7oyUMuAkzs69H2TjACthv0xIG3IT9NmXjACtgZvb1aAkDbsLsjLIxYAXMLqdsDFgBewp1v+EBN2HHlI0BK2B2OWVjwAqYndESBtyEmdkXo2wcYAXsI2gJA27CPoKycYAVMDP7YrSEATdhdkbZGLACZpdTNgasgD2Fut/wgJuwY8rGgBUwu5yyMWAFzM5oCQNuwszsK1E2DrAC9kG0hAE3YR9E2TjACpiZfSVawoCbMDujbAxYAbPLKRsDVsCeQt1veMBN2DFlY8AKmF1O2RiwAmZntIQBN2Fm9mUoGwdYAfs4WsKAm7CPo2wcYAXMzL4MLWHATZidUTYGrIDZ5ZSNAStgT6HuNzzgJuyYsjFgBcwup2wMWAGzM1rCgJswM/salI0DrIB9KC1hwE3Yh1I2DrACZmZfg5Yw4CbMzigbA1bA7HLKxoAVsKdQ9xsecBN2TNkYsAJml1M2BqyA2RktYcBNmJl9AcrGAVbAPpqWMOAm7KMpGwdYATOzL0BLGHATZmeUjQErYHY5ZWPACthTqPsND7gJO6ZsDFgBs8spGwNWwOyMljDgJszMPpuycYAVsD9ASxhwE/YHKBsHWAEzs8+mJQy4CbMzysaAFTC7nLIxYAXsKdT9hgfchB1TNgasgNnllI0BK2B2RksYcBNmZp9K2TjACtifoSUMuAn7M5SNA6yAmdmn0hIG3ITZGWVjwAqYXU7ZGLAC9hTqfsMDbsKOKRsDVsDscsrGgBUwO6MlDLgJM7PPo2wcYAXsj9ESBtyE/THKxgFWwMzs82gJA27C7IyyMWAFzC6nbAxYAXsKdb/hATdhx5SNAStgdjllY8AKmJ3REgbchJnZJ1E2foUVsD9MSxhwE/aHKRu/wgqYmX0SLWHATZidUTYGrIDZ5ZSNAStgT6HuNzzgJuyYsjFgBcwup2wMWAGzM1rCgJswM/sMysavsAL252kJA27C/jxl41dYATOzz6AlDLgJszPKxoAVMLucsjFgBewp1P2GB9yEHVM2BqyA2eWUjQErYHZGSxhwE2Zml1M2foUVsEtoCQNuwi6hbPwKK2BmdjktYcBNmJ1RNgasgNnllI0BK2BPoe43POAm7JiyMWAFzC6nbAxYAbMzWsKAmzAzu5ay8SusgF1FSxhwE3YVZeNXWAEzs2tpCQNuwuyMsjFgBcwup2wMWAF7CnW/4QE3YceUjQErYHY5ZWPACpid0RIG3ISZ2bWUjTexAnYhLWHATdiFlI03sQJmZtfSEgbchNkZZWPACphdTtkYsAL2FOp+wwNuwo4pGwNWwOxyysaAFTA7oyUMuAkzswspG29iBexaWsKAm7BrKRtvYgXMzC6kJQy4CbMzysaAFTC7nLIxYAXsKdT9hgfchB1TNgasgNnllI0BK2B2RksYcBNmZldRNt7ECtjltIQBN2GXUzbexAqYmV1FSxhwE2ZnlI0BK2B2OWVjwArYU6j7DQ+4CTumbAxYAbPLKRsDVsDsjJYw4CbMzC6hbLyJFbDPoCUMuAn7DMrGm1gBM7NLaAkDbsLsjLIxYAXMLqdsDFgBewp1v+EBN2HHlI0BK2B2OWVjwAqYndESBtyEmdmfp2z8Citgn0FLGHAT9hmUjV9hBczM/jwtYcBNmJ1RNgasgNnllI0BK2BPoe43POAm7JiyMWAFzC6nbAxYAbMzWsKAmzAz+8OUjV9hBeyTaAkDbsI+ibLxK6yAmdkfpiUMuAmzM8rGgBUwu5yyMWAF7CnU/YYH3IQdUzYGrIDZ5ZSNAStgdkZLGHATZmZ/mLLxJlbAPo+WMOAm7PMoG29iBczM/jAtYcBNmJ1RNgasgNnllI0BK2BPoe43POAm7JiyMWAFzC6nbAxYAbMzWsKAmzAz+5OUjTexAvaptIQBN2GfStl4EytgZvYnaQkDbsLsjLIxYAXMLqdsDFgBewp1v+EBN2HHlI0BK2B2OWVjwAqYndESBtyEmdkfo2y8iRWwz6YlDLgJ+2zKxptYATOzP0ZLGHATZmeUjQErYHY5ZWPACthTqPsND7gJO6ZsDFgBs8spGwNWwOyMljDgJszM/gxl41dYAftsWsKAm7DPpmz8CitgZvZnaAkDbsLsjLIxYAXMLqdsDFgBewp1v+EBN2HHlI0BK2B2OWVjwAqYndESBtyEmdkfoGz8CitgX4CWMOAm7AtQNn6FFTAz+wO0hAE3YXZG2RiwAmaXUzYGrIA9hbrf8ICbsGPKxoAVMLucsjFgBczOaAkDbsLM7A9QNt7ECtjXoCUMuAn7GpSNN7ECZmZ/gJYw4CbMzigbA1bA7HLKxoAVsKdQ9xsecBN2TNkYsAJml1M2BqyA2RktYcBNmJl9NGXjTayAfRlawoCbsC9D2XgTK2Bm9tG0hAE3YXZG2RiwAmaXUzYGrIA9hbrf8ICbsGPKxoAVMLucsjFgBczOaAkDbsLM7EMpG29iBewr0RIG3IR9JcrGm1gBM7MPpSUMuAmzM8rGgBUwu5yyMWAF7CnU/YYH3IQdUzYGrIDZ5ZSNAStgdkZLGHATZmYfR9n4FVbAvhItYcBN2FeibPwKK2Bm9nG0hAE3YXZG2RiwAmaXUzYGrIA9hbrf8ICbsGPKxoAVMLucsjFgBczOaAkDbsLM7IMoG7/CCtgXoyUMuAn7YpSNX2EFzMw+iJYw4CbMzigbA1bA7HLKxoAVsKdQ9xsecBN2TNkYsAJml1M2BqyA2RktYcBNmJl9EGXjTayAfT1awoCbsK9H2XgTK2Bm9kG0hAE3YXZG2RiwAmaXUzYGrIA9hbrf8ICbsGPKxoAVMLucsjFgBczOaAkDbsLM7IMoGzNWwL4kLWHATdiXpGzMWAEzsw+iJQy4CbMzysaAFTC7nLIxYAXsKdT9hgfchB1TNgasgNnllI0BK2B2RksYcBNmZh9B2XgTK2BfkpYw4CbsS1I23sQKmJl9BC1hwE2YnVE2BqyA2eWUjQErYE+h7jc84CbsmLIxYAXMLqdsDFgBszNawoCbMDP7bcrGm1gB+6q0hAE3YV+VsvEmVsDM7LdpCQNuwuyMsjFgBcwup2wMWAF7CnW/4QE3YceUjQErYHY5ZWPACpid0RIG3ISZ2W9TNmasgH1hWsKAm7AvTNmYsQJmZr9NSxhwE2ZnlI0BK2B2OWVjwArYU6j7DQ+4CTumbAxYAbPLKRsDVsDsjJYw4CbMzH6PsjFjBexr0xIG3IR9bcrGjBUwM/s9WsKAmzA7o2wMWAGzyykbA1bAnkLdb3jATdgxZWPACphdTtkYsAJmZ7SEATdhZvYblI03sQL2tWkJA27CvjZl402sgJnZb9ASBtyE2RllY8AKmF1O2RiwAvYU6n7DA27CjikbA1bA7HLKxoAVMDujJQy4CTOz36BszFgB+/K0hAE3YV+esjFjBczMfoOWMOAmzM4oGwNWwOxyysaAFbCnUPcbHnATdkzZGLACZpdTNgasgNkZLWHATZiZPUvZmLEC9gq0hAE3Ya9A2ZixAmZmz9ISBtyE2RllY8AKmF1O2RiwAvYU6n7DA27CjikbA1bA7HLKxoAVMDujJQy4CTOzpygbb2IF7BVoCQNuwl6BsvEmVsDM7ClawoCbMDujbAxYAbPLKRsDVsCeQt1veMBN2DFlY8AKmF1O2RiwAmZntIQBN2Fm9hRlY8YK2IvQEgbchL0IZWPGCpiZPUVLGHATZmeUjQErYHY5ZWPACthTqPsND7gJO6ZsDFgBs8spGwNWwOyMljDgJszM3k/ZmLEC9jq0hAE3Ya9D2ZixAmZm76clDLgJszPKxoAVMLucsjFgBewp1P2GB9yEHVM2BqyA2eWUjQErYHZGSxhwE2Zm76RsvIkVsNehJQy4CXsdysabWAEzs3fSEgbchNkZZWPACphdTtkYsAL2FOp+wwNuwo4pGwNWwOxyysaAFTA7oyUMuAkzs3dSNmasgL0ULWHATdhLUTZmrICZ2TtpCQNuwuyMsjFgBcwup2wMWAF7CnW/4QE3YceUjQErYHY5ZWPACpid0RIG3ISZ2XsoG29iBeylaAkDbsJeirLxJlbAzOw9tIQBN2F2RtkYsAJml1M2BqyAPYW63/CAm7BjysaAFTC7nLIxYAXMzmgJA27CzOw9lI0ZK2CvRksYcBP2apSNGStgZvYeWsKAmzA7o2wMWAGzyykbA1bAnkLdb3jATdgxZWPACphdTtkYsAJmZ7SEATdhZnZM2ZixAvaCtIQBN2EvSNmYsQJmZse0hAE3YXZG2RiwAmaXUzYGrIA9hbrf8ICbsGPKxoAVMLucsjFgBczOaAkDbsLM7Iyy8SZWwF6QljDgJuwFKRtvYgXMzM5oCQNuwuyMsjFgBcwup2wMWAF7CnW/4QE3YceUjQErYHY5ZWPACpid0RIG3ISZ2RllY8YK2GvSEgbchL0mZWPGCpiZndESBtyE2RllY8AKmF1O2RiwAvYU6n7DA27CjikbA1bA7HLKxoAVMDv0q7UVAAAgAElEQVSjJQy4CTOzA8rGm1gBe01awoCbsNekbLyJFTAzO6AlDLgJszPKxoAVMLucsjFgBewp1P2GB9yEHVM2BqyA2eWUjQErYHZGSxhwE2ZmB5SNGStgL0tLGHAT9rKUjRkrYGZ2QEsYcBNmZ5SNAStgdjllY8AK2FOo+w0PuAk7pmwMWAGzyykbA1bA7IyWMOAmzMx+Rdl4EytgL0tLGHAT9rKUjTexAmZmv6IlDLgJszPKxoAVMLucsjFgBewp1P2GB9yEHVM2BqyA2eWUjQErYHZGSxhwE2Zmv6JszFgBe2VawoCbsFembMxYATOzX9ESBtyE2RllY8AKmF1O2RiwAvYU6n7DA27CjikbA1bA7HLKxoAVMDujJQy4CTOzNykbb2IF7JVpCQNuwl6ZsvEmVsDM7E1awoCbMDujbAxYAbPLKRsDVsCeQt1veMBN2DFlY8AKmF1O2RiwAmZntIQBN2Fm9iZlY8YK2IvTEgbchL04ZWPGCpiZvUlLGHATZmeUjQErYHY5ZWPACthTqPsND7gJO6ZsDFgBs8spGwNWwOyMljDgJszMZsrGm1gBe3FawoCbsBenbLyJFTAzm2kJA27C7IyyMWAFzC6nbAxYAXsKdb/hATdhx5SNAStgdjllY8AKmJ3REgbchJnZTNmYsQL2+rSEATdhr0/ZmLECZmYzLWHATZidUTYGrIDZ5ZSNAStgT6HuNzzgJuyYsjFgBcwup2wMWAGzM1rCgJswMxsoGzNWwL4FLWHATdi3oGzMWAEzs4GWMOAmzM4oGwNWwOxyysaAFbCnUPcbHnATdkzZGLACZpdTNgasgNkZLWHATZiZDZSNGStg34KWMOAm7FtQNmasgJnZQEsYcBNmZ5SNAStgdjllY8AK2FOo+w0PuAk7pmwMWAGzyykbA1bA7IyWMOAmzMz+F2VjxgrYd6ElDLgJ+y6UjRkrYGb2v2gJA27C7IyyMWAFzC6nbAxYAXsKdb/hATdhx5SNAStgdjllY8AKmJ3REgbchJnZ/6JszFgB+y60hAE3Yd+FsjFjBczM/hctYcBNmJ1RNgasgNnllI0BK2BPoe43POAm7JiyMWAFzC6nbAxYAbMzWsKAmzAz+1+UjQErYN+IljDgJuwbUTYGrICZ2f+iJQy4CbMzysaAFTC7nLIxYAXsKdT9hgfchB1TNgasgNnllI0BK2B2RksYcBNmZv+gbMxYAftGtIQBN2HfiLIxYwXMzP5BSxhwE2ZnlI0BK2B2OWVjwArYU6j7DQ+4CTumbAxYAbPLKRsDVsDsjJYw4CbMzP5B2RiwAva9aAkDbsK+F2VjwAqYmf2DljDgJszOKBsDVsDscsrGgBWwp1D3Gx5wE3ZM2RiwAmaXUzYGrIDZGS1hwE2Ymf1/ysaMFbDvRUsYcBP2vSgbM1bAzOz/0xIG3ITZGWVjwAqYXU7ZGLAC9hTqfsMDbsKOKRsDVsDscsrGgBUwO6MlDLgJM7P/T9mYsQL2vWgJA27CvhdlY8YKmJn9f1rCgJswO6NsDFgBs8spGwNWwJ5C3W94wE3YMWVjwAqYXU7ZGLACZme0hAE3YWb2QNmYsQL27WgJA27Cvh1lY8YKmJk90BIG3ITZGWVjwAqYXU7ZGLAC9hTqfsMDbsKOKRsDVsDscsrGgBUwO6MlDLgJM7MHysaMFbBvR0sYcBP27SgbM1bAzOyBljDgJszOKBsDVsDscsrGgBWwp1D3Gx5wE3ZM2RiwAmaXUzYGrIDZGS1hwE2YmT1QNgasgH1HWsKAm7DvSNkYsAJmZg+0hAE3YXZG2RiwAmaXUzYGrIA9hbrf8ICbsGPKxoAVMLucsjFgBczOaAkDbsLM7L+UjRkrYN+RljDgJuw7UjZmrICZ2X9pCQNuwuyMsjFgBcwup2wMWAF7CnW/4QE3YceUjQErYHY5ZWPACpid0RIG3ISZ2X8pGzNWwL4jLWHATdh3pGzMWAEzs//SEgbchNkZZWPACphdTtkYsAL2FOp+wwNuwo4pGwNWwOxyysaAFTA7oyUMuAkzs/9QNmasgH1TWsKAm7BvStmYsQJmZv+hJQy4CbMzysaAFTC7nLIxYAXsKdT9hgfchB1TNgasgNnllI0BK2B2RksYcBNmZv+hbMxYAfumtIQBN2HflLIxYwXMzP5DSxhwE2ZnlI0BK2B2OWVjwArYU6j7DQ+4CTumbAxYAbPLKRsDVsDsjJYw4CbMzP5D2RiwAvZ9aQkDbsK+L2VjwAqYmf2HljDgJszOKBsDVsDscsrGgBWwp1D3Gx5wE3ZM2RiwAmaXUzYGrIDZGS1hwE2YmQHKxowVsO9LSxhwE/Z9KRszVsDMDNASBtyE2RllY8AKmF1O2RiwAvYU/h97cIwrWXArCTTCrKZdvSSuIpeXq+CS2me7MYMPaFCaL0qJMi6gl3GO3i984CbsmLIxYAXMHqdsDFgBszNawoCbMDMDlI0ZK2A/l5Yw4Cbs51I2ZqyAmRmgJQy4CbMzysaAFTB7nLIxYAXsK9T7hQ/chB1TNgasgNnjlI0BK2B2RksYcBNmZoCyMWAF7EfTEgbchP1oysaAFTAzA7SEATdhdkbZGLACZo9TNgasgH2Fer/wgZuwY8rGgBUwe5yyMWAFzM5oCQNuwsyup2zMWAH70bSEATdhP5qyMWMFzOx6WsKAmzA7o2wMWAGzxykbA1bAvkK9X/jATdgxZWPACpg9TtkYsAJmZ7SEATdhZtdTNmasgP1oWsKAm7AfTdmYsQJmdj0tYcBNmJ1RNgasgNnjlI0BK2Bfod4vfOAm7JiyMWAFzB6nbAxYAbMzWsKAmzCz6ykbA1bAfjotYcBN2E+nbAxYATO7npYw4CbMzigbA1bA7HHKxoAVsK9Q7xc+cBN2TNkYsAJmj1M2BqyA2RktYcBNmNn1lI0BK2A/nZYw4Cbsp1M2BqyAmV1PSxhwE2ZnlI0BK2D2OGVjwArYV6j3Cx+4CTumbAxYAbPHKRsDVsDsjJYw4CbM7G7KxowVsJ9OSxhwE/bTKRszVsDM7qYlDLgJszPKxoAVMHucsjFgBewr1PuFD9yEHVM2BqyA2eOUjQErYHZGSxhwE2Z2N2VjwArYBbSEATdhF1A2BqyAmd1NSxhwE2ZnlI0BK2D2OGVjwArYV6j3Cx+4CTumbAxYAbPHKRsDVsDsjJYw4CbM7G7KxoAVsAtoCQNuwi6gbAxYATO7m5Yw4CbMzigbA1bA7HHKxoAVsK9Q7xc+cBN2TNkYsAJmj1M2BqyA2RktYcBNmNnFlI0ZK2AX0BIG3IRdQNmYsQJmdjEtYcBNmJ1RNgasgNnjlI0BK2Bfod4vfOAm7JiyMWAFzB6nbAxYAbMzWsKAmzCziykbM1bALqAlDLgJu4CyMWMFzOxiWsKAmzA7o2wMWAGzxykbA1bAvkK9X/jATdgxZWPACpg9TtkYsAJmZ7SEATdhZhdTNgasgN1BSxhwE3YHZWPACpjZxbSEATdhdkbZGLACZo9TNgasgH2Fer/wgZuwY8rGgBUwe5yyMWAFzM5oCQNuwsxupWzMWAG7g5Yw4CbsDsrGjBUws1tpCQNuwuyMsjFgBcwep2wMWAH7CvV+4QM3YceUjQErYPY4ZWPACpid0RIG3ISZ3UrZmLECdgctYcBN2B2UjRkrYGa30hIG3ITZGWVjwAqYPU7ZGLAC9hXq/cIHbsKOKRsDVsDsccrGgBUwO6MlDLgJM7uVsjFgBewaWsKAm7BrKBsDVsDMbqUlDLgJszPKxoAVMHucsjFgBewr1PuFD9yEHVM2BqyA2eOUjQErYHZGSxhwE2Z2K2VjwArYNbSEATdh11A2BqyAmd1KSxhwE2ZnlI0BK2D2OGVjwArYV6j3Cx+4CTumbAxYAbPHKRsDVsDsjJYw4CbM7FbKxoAVsGtoCQNuwq6hbAxYATO7lZYw4CbMzigbA1bA7HHKxoAVsK9Q7xc+cBN2TNkYsAJmj1M2BqyA2RktYcBNmNmVlI0BK2A30RIG3ITdRNkYsAJmdiUtYcBNmJ1RNgasgNnjlI0BK2Bfod4vfOAm7JiyMWAFzB6nbAxYAbMzWsKAmzCzKykbA1bAbqIlDLgJu4myMWAFzOxKWsKAmzA7o2wMWAGzxykbA1bAvkK9X/jATdgxZWPACpg9TtkYsAJmZ7SEATdhZldSNgasgN1ESxhwE3YTZWPACpjZlbSEATdhdkbZGLACZo9TNgasgH2Fer/wgZuwY8rGgBUwe5yyMWAFzM5oCQNuwsyupGwMWAG7iZYw4CbsJsrGgBUwsytpCQNuwuyMsjFgBcwep2wMWAH7CvV+4QM3YceUjQErYPY4ZWPACpid0RIG3ISZ3UfZmLECdhMtYcBN2E2UjRkrYGb30RIG3ITZGWVjwAqYPU7ZGLAC9hXq/cIHbsKOKRsDVsDsccrGgBUwO6MlDLgJM7uPsjFgBewyWsKAm7DLKBsDVsDM7qMlDLgJszPKxoAVMHucsjFgBewr1PuFD9yEHVM2BqyA2eOUjQErYHZGSxhwE2Z2H2VjwArYZbSEATdhl1E2BqyAmd1HSxhwE2ZnlI0BK2D2OGVjwArYV6j3Cx+4CTumbAxYAbPHKRsDVsDsjJYw4CbM7D7KxoAVsMtoCQNuwi6jbAxYATO7j5Yw4CbMzigbA1bA7HHKxoAVsK9Q7xc+cBN2TNkYsAJmj1M2BqyA2RktYcBNmNl9lI0BK2CX0RIG3IRdRtkYsAJmdh8tYcBNmJ1RNgasgNnjlI0BK2Bfod4vfOAm7JiyMWAFzB6nbAxYAbMzWsKAmzCzyygbA1bA7qMlDLgJu4+yMWAFzOwyWsKAmzA7o2wMWAGzxykbA1bAvkK9X/jATdgxZWPACpg9TtkYsAJmZ7SEATdhZpdRNgasgN1HSxhwE3YfZWPACpjZZbSEATdhdkbZGLACZo9TNgasgH2Fer/wgZuwY8rGgBUwe5yyMWAFzM5oCQNuwswuo2wMWAG7j5Yw4CbsPsrGgBUws8toCQNuwuyMsjFgBcwep2wMWAH7CvV+4QM3YceUjQErYPY4ZWPACpid0RIG3ISZXUbZGLACdh8tYcBN2H2UjQErYGaX0RIG3ITZGWVjwAqYPU7ZGLAC9hXq/cIHbsKOKRsDVsDsccrGgBUwO6MlDLgJM7uMsjFgBew+WsKAm7D7KBsDVsDMLqMlDLgJszPKxoAVMHucsjFgBewr1PuFD9yEHVM2BqyA2eOUjQErYHZGSxhwE2Z2E2VjwArYlbSEATdhV1I2BqyAmd1ESxhwE2ZnlI0BK2D2OGVjwArYV6j3Cx+4CTumbAxYAbPHKRsDVsDsjJYw4CbM7CbKxoAVsCtpCQNuwq6kbAxYATO7iZYw4CbMzigbA1bA7HHKxoAVsK9Q7xc+cBN2TNkYsAJmj1M2BqyA2RktYcBNmNlNlI0BK2BX0hIG3IRdSdkYsAJmdhMtYcBNmJ1RNgasgNnjlI0BK2Bfod4vfOAm7JiyMWAFzB6nbAxYAbMzWsKAmzCzmygbA1bArqQlDLgJu5KyMWAFzOwmWsKAmzA7o2wMWAGzxykbA1bAvkK9X/jATdgxZWPACpg9TtkYsAJmZ7SEATdhZjdRNgasgF1JSxhwE3YlZWPACpjZTbSEATdhdkbZGLACZo9TNgasgH2Fer/wgZuwY8rGgBUwe5yyMWAFzM5oCQNuwsxuomwMWAG7kpYw4CbsSsrGgBUws5toCQNuwuyMsjFgBcwep2wMWAH7CvV+4QM3YceUjQErYPY4ZWPACpid0RIG3ISZ3UTZGLACdiUtYcBN2JWUjQErYGY30RIG3ITZGWVjwAqYPU7ZGLAC9hXq/cIHbsKOKRsDVsDsccrGgBUwO6MlDLgJM7uGsjFjBexKWsKAm7ArKRszVsDMrqElDLgJszPKxoAVMHucsjFgBewr1PuFD9yEHVM2BqyA2eOUjQErYHZGSxhwE2Z2DWVjwArYrbSEATdht1I2BqyAmV1DSxhwE2ZnlI0BK2D2OGVjwArYV6j3Cx+4CTumbAxYAbPHKRsDVsDsjJYw4CbM7BrKxoAVsFtpCQNuwm6lbAxYATO7hpYw4CbMzigbA1bA7HHKxoAVsK9Q7xc+cBN2TNkYsAJmj1M2BqyA2RktYcBNmNk1lI0BK2D3UTb+r9+/MPnzFwArYPdRNgasgJldQ0sYcBNmZ5SNAStg9jhlY8AK2Feo9wsfuAk7pmwMWAGzxykbA1bA7IyWMOAmzOwaysaAFbCbKBv/z+9fmPz5i39gBewmysaAFTCza2gJA27C7IyyMWAFzB6nbAxYAfsK9X7hAzdhx5SNAStg9jhlY8AKmJ3REgbchJldQ9kYsAJ2B2Xj//P7FyZ//uKfsQJ2B2VjwAqY2TW0hAE3YXZG2RiwAmaPUzYGrIB9hXq/8IGbsGPKxoAVMHucsjFgBczOaAkDbsLMrqFsDFgB++mUjX/p9y9M/vzFv8IK2E+nbAxYATO7hpYw4CbMzigbA1bA7HHKxoAVsK9Q7xc+cBN2TNkYsAJmj1M2BqyA2RktYcBNmNk1lI0BK2A/mrIx+f0Lkz9/MWAF7EdTNgasgJldQ0sYcBNmZ5SNAStg9jhlY8AK2Feo9wsfuAk7pmwMWAGzxykbA1bA7IyWMOAmzOwaysaAFbCfS9n4N37/wuTPX8xYAfu5lI0BK2Bm19ASBtyE2RllY8AKmD1O2RiwAvYV6v3CB27CjikbA1bA7HHKxoAVMDujJQy4CTO7hrIxYAXsh1I2/r3fvzD58xf/FitgP5SyMWAFzOwaWsKAmzA7o2wMWAGzxykbA1bAvkK9X/jATdgxZWPACpg9TtkYsAJmZ7SEATdhZtdQNgasgP1EysZ/9PsXJn/+4j9hBewnUjYGrICZXUNLGHATZmeUjQErYPY4ZWPACthXqPcLH7gJO6ZsDFgBs8cpGwNWwOyMljDgJszsDsrGgBWwH0rZ+I9+/8Lkz1/8J6yA/VDKxoAVMLM7aAkDbsLsjLIxYAXMHqdsDFgB+wr1fuEDN2HHlI0BK2D2OGVjwAqYndESBtyEmd1B2RiwAvYTKRsnfv/C5M9fHGAF7CdSNgasgJndQUsYcBNmZ5SNAStg9jhlY8AK2Feo9wsfuAk7pmwMWAGzxykbA1bA7IyWMOAmzOwOysaAFbCfSNk48fsXJn/+4gArYD+RsjFgBczsDlrCgJswO6NsDFgBs8cpGwNWwL5CvV/4wE3YMWVjwAqYPU7ZGLACZme0hAE3YWZ3UDYGrID9OMrGod+/MPnzF2dYAftxlI0BK2Bmd9ASBtyE2RllY8AKmD1O2RiwAvYV6v3CB27CjikbA1bA7HHKxoAVMDujJQy4CTO7g7IxYAXsx1E2Dv3+hcmfvzjDCtiPo2wMWAEzu4OWMOAmzM4oGwNWwOxxysaAFbCvUO8XPnATdkzZGLACZo9TNgasgNkZLWHATZjZHZSNAStgP4uyce73L0z+/MUxVsB+FmVjwAqY2R20hAE3YXZG2RiwAmaPUzYGrIB9hXq/8IGbsGPKxoAVMHucsjFgBczOaAkDbsLM7qBsDFgB+1mUjXO/f2Hy5y+OsQL2sygbA1bAzO6gJQy4CbMzysaAFTB7nLIxYAXsK9T7BTMzMzMzMzMzMzMzs6dQ7xfMzMzMzMzMzMzMzMyeQr1fMDMzMzMzMzMzMzMzewr1fsHMzMzMzMzMzMzMzOwp1PsFMzMzMzMzMzMzMzOzp1DvF8zMzMzMzMzMzMzMzJ5CvV8wMzMzMzMzMzMzMzN7CvV+wczMzMzMzMzMzMzM7CnU+wUzMzMzMzMzMzMzM7OnUO8XPnATdkzZGLACZo9TNgasgNkZLWHATZjZHZSNAStgP4uyce73L0z+/MUxVsB+FmVjwAqY2R20hAE3YXZG2RiwAmaPUzYGrIB9hXq/8IGbsGPKxoAVMHucsjFgBczOaAkDbsLM7qBsDFgB+1mUjXO/f2Hy5y+OsQL2sygbA1bAzO6gJQy4CbMzysaAFTB7nLIxYAXsK9T7hQ/chB1TNgasgNnjlI0BK2B2RksYcBNmdgdlY8AK2I+jbBz6/QuTP39xhhWwH0fZGLACZnYHLWHATZidUTYGrIDZ45SNAStgX6HeL3zgJuyYsjFgBcwep2wMWAGzM1rCgJswszsoGwNWwH4cZePQ71+Y/PmLM6yA/TjKxoAVMLM7aAkDbsLsjLIxYAXMHqdsDFgB+wr1fuEDN2HHlI0BK2D2OGVjwAqYndESBtyEmd1B2RiwAvYTKRsnfv/C5M9fHGAF7CdSNgasgJndQUsYcBNmZ5SNAStg9jhlY8AK2Feo9wsfuAk7pmwMWAGzxykbA1bA7IyWMOAmzOwOysaAFbCfSNk48fsXJn/+4gArYD+RsjFgBczsDlrCgJswO6NsDFgBs8cpGwNWwL5CvV/4wE3YMWVjwAqYPU7ZGLACZme0hAE3YWZ3UDYGrID9UMrGf/T7FyZ//uI/YQXsh1I2BqyAmd1BSxhwE2ZnlI0BK2D2OGVjwArYV6j3Cx+4CTumbAxYAbPHKRsDVsDsjJYw4CbM7BrKxoAVsJ9I2fiPfv/C5M9f/CesgP1EysaAFTCza2gJA27C7IyyMWAFzB6nbAxYAfsK9X7hAzdhx5SNAStg9jhlY8AKmJ3REgbchJldQ9kYsAL2Qykb/97vX5j8+Yt/ixWwH0rZGLACZnYNLWHATZidUTYGrIDZ45SNAStgX6HeL3zgJuyYsjFgBcwep2wMWAGzM1rCgJsws2soGwNWwH4uZePf+P0Lkz9/MWMF7OdSNgasgJldQ0sYcBNmZ5SNAStg9jhlY8AK2Feo9wsfuAk7pmwMWAGzxykbA1bA7IyWMOAmzOwaysaAFbAfTdmY/P6FyZ+/GLAC9qMpGwNWwMyuoSUMuAmzM8rGgBUwe5yyMWAF7CvU+4UP3IQdUzYGrIDZ45SNAStgdkZLGHATZnYNZWPACthPp2z8S79/YfLnL/4VVsB+OmVjwAqY2TW0hAE3YXZG2RiwAmaPUzYGrIB9hXq/8IGbsGPKxoAVMHucsjFgBczOaAkDbsLMrqFsDFgBu4Oy8f/5/QuTP3/xz1gBu4OyMWAFzOwaWsKAmzA7o2wMWAGzxykbA1bAvkK9X/jATdgxZWPACpg9TtkYsAJmZ7SEATdhZtdQNgasgN1E2fh/fv/C5M9f/AMrYDdRNgasgJldQ0sYcBNmZ5SNAStg9jhlY8AK2Feo9wsfuAk7pmwMWAGzxykbA1bA7IyWMOAmzOwaysaAFbD7KBv/1+9fmPz5C4AVsPsoGwNWwMyuoSUMuAmzM8rGgBUwe5yyMWAF7CvU+4UP3IQdUzYGrIDZ45SNAStgdkZLGHATZnYNZWPACtittIQBN2G3UjYGrICZXUNLGHATZmeUjQErYPY4ZWPACthXqPcLH7gJO6ZsDFgBs8cpGwNWwOyMljDgJszsGsrGgBWwW2kJA27CbqVsDFgBM7uGljDgJszOKBsDVsDsccrGgBWwr1DvFz5wE3ZM2RiwAmaPUzYGrIDZGS1hwE2Y2TWUjRkrYFfSEgbchF1J2ZixAmZ2DS1hwE2YnVE2BqyA2eOUjQErYF+h3i984CbsmLIxYAXMHqdsDFgBszNawoCbMLObKBsDVsCupCUMuAm7krIxYAXM7CZawoCbMDujbAxYAbPHKRsDVsC+Qr1f+MBN2DFlY8AKmD1O2RiwAmZntIQBN2FmN1E2BqyAXUlLGHATdiVlY8AKmNlNtIQBN2F2RtkYsAJmj1M2BqyAfYV6v/CBm7BjysaAFTB7nLIxYAXMzmgJA27CzG6ibAxYAbuSljDgJuxKysaAFTCzm2gJA27C7IyyMWAFzB6nbAxYAfsK9X7hAzdhx5SNAStg9jhlY8AKmJ3REgbchJndRNkYsAJ2JS1hwE3YlZSNAStgZjfREgbchNkZZWPACpg9TtkYsAL2Fer9wgduwo4pGwNWwOxxysaAFTA7oyUMuAkzu4myMWAF7EpawoCbsCspGwNWwMxuoiUMuAmzM8rGgBUwe5yyMWAF7CvU+4UP3IQdUzYGrIDZ45SNAStgdkZLGHATZnYTZWPACtiVtIQBN2FXUjYGrICZ3URLGHATZmeUjQErYPY4ZWPACthXqPcLH7gJO6ZsDFgBs8cpGwNWwOyMljDgJszsJsrGgBWwK2kJA27CrqRsDFgBM7uJljDgJszOKBsDVsDsccrGgBWwr1DvFz5wE3ZM2RiwAmaPUzYGrIDZGS1hwE2Y2WWUjQErYPfREgbchN1H2RiwAmZ2GS1hwE2YnVE2BqyA2eOUjQErYF+h3i984CbsmLIxYAXMHqdsDFgBszNawoCbMLPLKBsDVsDuoyUMuAm7j7IxYAXM7DJawoCbMDujbAxYAbPHKRsDVsC+Qr1f+MBN2DFlY8AKmD1O2RiwAmZntIQBN2Fml1E2BqyA3UdLGHATdh9lY8AKmNlltIQBN2F2RtkYsAJmj1M2BqyAfYV6v/CBm7BjysaAFTB7nLIxYAXMzmgJA27CzC6jbAxYAbuPljDgJuw+ysaAFTCzy2gJA27C7IyyMWAFzB6nbAxYAfsK9X7hAzdhx5SNAStg9jhlY8AKmJ3REgbchJldRtmYsQJ2GS1hwE3YZZSNGStgZpfREgbchNkZZWPACpg9TtkYsAL2Fer9wgduwo4pGwNWwOxxysaAFTA7oyUMuAkzu4yyMWMF7DJawoCbsMsoGzNWwMwuoyUMuAmzM8rGgBUwe5yyMWAF7CvU+4UP3IQdUzYGrIDZ45SNAStgdkZLGHATZnYfZWPACthltIQBN2GXUTYGrICZ3UdLGHATZmeUjQErYPY4ZWPACthXqPcLH7gJO6ZsDFgBs8cpGwNWwOyMljDgJszsPsrGgBWwy2gJA27CLqNsDFgBM7uPljDgJszOKBsDVsDsccrGgN/bT9MAACAASURBVBWwr1DvFz5wE3ZM2RiwAmaPUzYGrIDZGS1hwE2Y2X2UjQErYJfREgbchF1G2RiwAmZ2Hy1hwE2YnVE2BqyA2eOUjQErYF+h3i984CbsmLIxYAXMHqdsDFgBszNawoCbMLP7KBszVsBuoiUMuAm7ibIxYwXM7D5awoCbMDujbAxYAbPHKRsDVsC+Qr1f+MBN2DFlY8AKmD1O2RiwAmZntIQBN2FmV1I2BqyA3URLGHATdhNlY8AKmNmVtIQBN2F2RtkYsAJmj1M2BqyAfYV6v/CBm7BjysaAFTB7nLIxYAXMzmgJA27CzK6kbAxYAbuJljDgJuwmysaAFTCzK2kJA27C7IyyMWAFzB6nbAxYAfsK9X7hAzdhx5SNAStg9jhlY8AKmJ3REgbchJldSdkYsAJ2Ey1hwE3YTZSNAStgZlfSEgbchNkZZWPACpg9TtkYsAL2Fer9wgduwo4pGwNWwOxxysaAFTA7oyUMuAkzu5KyMWMF7BpawoCbsGsoGzNWwMyupCUMuAmzM8rGgBUwe5yyMWAF7CvU+4UP3IQdUzYGrIDZ45SNAStgdkZLGHATZnYlZWPGCtg1tIQBN2HXUDZmrICZXUlLGHATZmeUjQErYPY4ZWPACthXqPcLH7gJO6ZsDFgBs8cpGwNWwOyMljDgJszsVsrGgBWwa2gJA27CrqFsDFgBM7uVljDgJszOKBsDVsDsccrGgBWwr1DvFz5wE3ZM2RiwAmaPUzYGrIDZGS1hwE2Y2a2UjQErYNfQEgbchF1D2RiwAmZ2Ky1hwE2YnVE2BqyA2eOUjQErYF+h3i984CbsmLIxYAXMHqdsDFgBszNawoCbMLNbKRszVsDuoCUMuAm7g7IxYwXM7FZawoCbMDujbAxYAbPHKRsDVsC+Qr1f+MBN2DFlY8AKmD1O2RiwAmZntIQBN2Fmt1I2ZqyA3UFLGHATdgdlY8YKmNmttIQBN2F2RtkYsAJmj1M2BqyAfYV6v/CBm7BjysaAFTB7nLIxYAXMzmgJA27CzC6mbAxYAbuDljDgJuwOysaAFTCzi2kJA27C7IyyMWAFzB6nbAxYAfsK9X7hAzdhx5SNAStg9jhlY8AKmJ3REgbchJldTNmYsQJ2AS1hwE3YBZSNGStgZhfTEgbchNkZZWPACpg9TtkYsAL2Fer9wgduwo4pGwNWwOxxysaAFTA7oyUMuAkzu5iyMWMF7AJawoCbsAsoGzNWwMwupiUMuAmzM8rGgBUwe5yyMWAF7CvU+4UP3IQdUzYGrIDZ45SNAStgdkZLGHATZnY3ZWPACtgFtIQBN2EXUDYGrICZ3U1LGHATZmeUjQErYPY4ZWPACthXqPcLH7gJO6ZsDFgBs8cpGwNWwOyMljDgJszsbsrGgBWwC2gJA27CLqBsDFgBM7ubljDgJszOKBsDVsDsccrGgBWwr1DvFz5wE3ZM2RiwAmaPUzYGrIDZGS1hwE2Y2d2UjRkrYD+dljDgJuynUzZmrICZ3U1LGHATZmeUjQErYPY4ZWPACthXqPcLH7gJO6ZsDFgBs8cpGwNWwOyMljDgJszsesrGgBWwn05LGHAT9tMpGwNWwMyupyUMuAmzM8rGgBUwe5yyMWAF7CvU+4UP3IQdUzYGrIDZ45SNAStgdkZLGHATZnY9ZWPACthPpyUMuAn76ZSNAStgZtfTEgbchNkZZWPACpg9TtkYsAL2Fer9wgduwo4pGwNWwOxxysaAFTA7oyUMuAkzu56yMWMF7EfTEgbchP1oysaMFTCz62kJA27C7IyyMWAFzB6nbAxYAfsK9X7hAzdhx5SNAStg9jhlY8AKmJ3REgbchJldT9mYsQL2o2kJA27CfjRlY8YKmNn1tIQBN2F2RtkYsAJmj1M2BqyAfYV6v/CBm7BjysaAFTB7nLIxYAXMzmgJA27CzAxQNgasgP1oWsKAm7AfTdkYsAJmZoCWMOAmzM4oGwNWwOxxysaAFbCvUO8XPnATdkzZGLACZo9TNgasgNkZLWHATZiZAcrGjBWwn0tLGHAT9nMpGzNWwMwM0BIG3ITZGWVjwAqYPU7ZGLAC9hXq/cIHbsKOKRsDVsDsccrGgBUwO6MlDLgJMzNA2ZixAvZzaQkDbsJ+LmVjxgqYmQFawoCbMDujbAxYAbPHKRsDVsC+Qr1f+MBN2DFlY8AKmD1O2RiwAmZntIQBN2Fm9j+UjQErYD+XljDgJuznUjYGrICZ2f/QEgbchNkZZWPACpg9TtkYsAL2Fer9wgduwo4pGwNWwOxxysaAFTA7oyUMuAkzs/+hbMxYAfuhtIQBN2E/lLIxYwXMzP6HljDgJszOKBsDVsDsccrGgBWwr1DvFz5wE3ZM2RiwAmaPUzYGrIDZGS1hwE2Ymf2DsjFgBeyH0hIG3IT9UMrGgBUwM/sHLWHATZidUTYGrIDZ45SNAStgX6HeL3zgJuyYsjFgBcwep2wMWAGzM1rCgJswM/sHZWPGCthPpCUMuAn7iZSNGStgZvYPWsKAmzA7o2wMWAGzxykbA1bAvkK9X/jATdgxZWPACpg9TtkYsAJmZ7SEATdhZvYPysaMFbCfSEsYcBP2EykbM1bAzOwftIQBN2F2RtkYsAJmj1M2BqyAfYV6v/CBm7BjysaAFTB7nLIxYAXMzmgJA27CzOyDsjFgBewn0hIG3IT9RMrGgBUwM/ugJQy4CbMzysaAFTB7nLIxYAXsK9T7hQ/chB1TNgasgNnjlI0BK2B2RksYcBNmZh+UjRkrYD+OljDgJuzHUTZmrICZ2QctYcBNmJ1RNgasgNnjlI0BK2Bfod4vfOAm7JiyMWAFzB6nbAxYAbMzWsKAmzAz+2fKxoAVsB9HSxhwE/bjKBsDVsDM7J9pCQNuwuyMsjFgBcwep2wMWAH7CvV+4QM3YceUjQErYPY4ZWPACpid0RIG3ISZ2T9TNmasgP0sWsKAm7CfRdmYsQJmZv9MSxhwE2ZnlI0BK2D2OGVjwArYV6j3Cx+4CTumbAxYAbPHKRsDVsDsjJYw4CbMzP6ZsjFjBexn0RIG3IT9LMrGjBUwM/tnWsKAmzA7o2wMWAGzxykbA1bAvkK9X/jATdgxZWPACpg9TtkYsAJmZ7SEATdhZva/KBszVsB+EC1hwE3YD6JszFgBM7P/RUsYcBNmZ5SNAStg9jhlY8AK2Feo9wsfuAk7pmwMWAGzxykbA1bA7IyWMOAmzMz+F2VjxgrYD6IlDLgJ+0GUjRkrYGb2v2gJA27C7IyyMWAFzB6nbAxYAfsK9X7hAzdhx5SNAStg9jhlY8AKmJ3REgbchJnZv6JsDFgB+0G0hAE3YT+IsjFgBczM/hUtYcBNmJ1RNgasgNnjlI0BK2Bfod4vfOAm7JiyMWAFzB6nbAxYAbMzWsKAmzAz+1eUjRkrYD+FljDgJuynUDZmrICZ2b+iJQy4CbMzysaAFTB7nLIxYAXsK9T7hQ/chB1TNgasgNnjlI0BK2B2RksYcBNmZv+KsjFjBeyn0BIG3IT9FMrGjBUwM/tXtIQBN2F2RtkYsAJmj1M2BqyAfYV6v/CBm7BjysaAFTB7nLIxYAXMzmgJA27CzGygbMxYAfsRtIQBN2E/grIxYwXMzAZawoCbMDujbAxYAbPHKRsDVsC+Qr1f+MBN2DFlY8AKmD1O2RiwAmZntIQBN2FmNlA2ZqyA/QhawoCbsB9B2ZixAmZmAy1hwE2YnVE2BqyA2eOUjQErYF+h3i984CbsmLIxYAXMHqdsDFgBszNawoCbMDObKRszVsD++2kJA27C/vspGzNWwMxspiUMuAmzM8rGgBUwe5yyMWAF7CvU+4UP3IQdUzYGrIDZ45SNAStgdkZLGHATZmYzZePfYgXsv5yWMOAm7L+csvFvsQJmZjMtYcBNmJ1RNgasgNnjlI0BK2Bfod4vfOAm7JiyMWAFzB6nbAxYAbMzWsKAmzAz+7eUjRkrYP/ltIQBN2H/5ZSNGStgZvZvaQkDbsLsjLIxYMX/YQ8Ochvd1aTdRjR12NYZEkfB4XEUHNLuc3fjAhcoQD+qXietdH5pWc9aAi6XvlXwasJTnPtNDzwtHEvfKng1AZdL3yp4NQFnMqKCpwUAH0rf+pBXE15ZRlTwtPDK0rc+5NUEAB/KiAqeFnAmfavg1QRcLn2r4NWEpzj3mx54WjiWvlXwagIul75V8GoCzmREBU8LAH4lfavm1YRXlhEVPC28svStmlcTAPxKRlTwtIAz6VsFrybgculbBa8mPMW53/TA08Kx9K2CVxNwufStglcTcCYjKnhaAPAr6Vsf8mrCy8qICp4WXlb61oe8mgDgVzKigqcFnEnfKng1AZdL3yp4NeEpzv2mB54WjqVvFbyagMulbxW8moAzGVHB0wKAA+lbNa8mvKyMqOBp4WWlb9W8mgDgQEZU8LSAM+lbBa8m4HLpWwWvJjzFud/0wNPCsfStglcTcLn0rYJXE3AmIyp4WgBwIH3rQ15NeE0ZUcHTwmtK3/qQVxMAHMiICp4WcCZ9q+DVBFwufavg1YSnOPebHnhaOJa+VfBqAi6XvlXwagLOZEQFTwsAzqRv1bya8JoyooKnhdeUvlXzagKAMxlRwdMCzqRvFbyagMulbxW8mvAU537TA08Lx9K3Cl5NwOXStwpeTcCZjKjgaQHAmfStD3k14QVlRAVPCy8ofetDXk0AcCYjKnhawJn0rYJXE3C59K2CVxOe4txveuBp4Vj6VsGrCbhc+lbBqwk4kxEVPC0AOJa+VfNqwgvKiAqeFl5Q+lbNqwkAjmVEBU8LOJO+VfBqAi6XvlXwasJTnPtNDzwtHEvfKng1AZdL3yp4NQFnMqKCpwUAn5G+VfNqwqvJiAqeFl5N+lbNqwkAPiMjKnhawJn0rYJXE3C59K2CVxOe4txveuBp4Vj6VsGrCbhc+lbBqwk4kxEVPC0A+Iz0rZpXE15NRlTwtPBq0rdqXk0A8BkZUcHTAs6kbxW8moDLpW8VvJrwFOd+0wNPC8fStwpeTcDl0rcKXk3AmYyo4GkBwCelb9W8mvBSMqKCp4WXkr5V82oCgE/KiAqeFnAmfavg1QRcLn2r4NWEpzj3mx54WjiWvlXwagIul75V8GoCzmREBU8LAD4pfetDXk14HRlRwdPC60jf+pBXEwB8UkZU8LSAM+lbBa8m4HLpWwWvJjzFud/0wNPCsfStglcTcLn0rYJXE3AmIyp4WgDweelbNa8mvI6MqOBp4XWkb9W8mgDg8zKigqcFnEnfKng1AZdL3yp4NeEpzv2mB54WjqVvFbyagMulbxW8moAzGVHB0wKAp6Rv1bya8CIyooKnhReRvlXzagKAp2REBU8LOJO+VfBqAi6XvlXwasJTnPtNDzwtHEvfKng1AZdL3yp4NQFnMqKCpwUAT0nf+pBXE15BRlTwtPAK0rc+5NUEAE/JiAqeFnAmfavg1QRcLn2r4NWEpzj3mx54WjiWvlXwagIul75V8GoCzmREBU8LAJ6VvlXzasIryIgKnhZeQfpWzasJAJ6VERU8LeBM+lbBqwm4XPpWwasJT3HuNz3wtHAsfavg1QRcLn2r4NUEnMmICp4WAPyG9K2aVxO+vYyo4Gnh20vfqnk1AcBvyIgKnhZwJn2r4NUEXC59q+DVhKc495seeFo4lr5V8GoCLpe+VfBqAs5kRAVPCwB+Q/rWh7ya8L1lRAVPC99b+taHvJoA4DdkRAVPCziTvlXwagIul75V8GrCU5z7TQ88LRxL3yp4NQGXS98qeDUBZzKigqcFAL8nfavm1YTvLSMqeFr43tK3al5NAPB7MqKCpwWcSd8qeDUBl0vfKng14SnO/aYHnhaOpW8VvJqAy6VvFbyagDMZUcHTAoDfk771Ia8mfGMZUcHTwjeWvvUhryYA+D0ZUcHTAs6kbxW8moDLpW8VvJrwFOd+0wNPC8fStwpeTcDl0rcKXk3AmYyo4GkBwG9L3/qQVxO+q4yo4Gnhu0rf+pBXEwD8toyo4GkBZ9K3Cl5NwOXStwpeTXiKc7/pgaeFY+lbBa8m4HLpWwWvJuBMRlTwtADgK6Rv1bya8F1lRAVPC99V+lbNqwkAvkJGVPC0gDPpWwWvJuBy6VsFryY8xbnf9MDTwrH0rYJXE3C59K2CVxNwJiMqeFoA8BXStz7k1YRvKSMqeFr4ltK3PuTVBABfISMqeFrAmfStglcTcLn0rYJXE57i3G964GnhWPpWwasJuFz6VsGrCTiTERU8LQD4IulbH/JqwveTERU8LXw/6Vsf8moCgC+SERU8LeBM+lbBqwm4XPpWwasJT3HuNz3wtHAsfavg1QRcLn2r4NUEnMmICp4WAHyR9K1f8WrCN5MRFTwtfDPpW7/i1QQAXyQjKnhawJn0rYJXE3C59K2CVxOe4txveuBp4Vj6VsGrCbhc+lbBqwk4kxEVPC0A+DrpW7/i1YTvJCMqeFr4TtK3fsWrCQC+TkZU8LSAM+lbBa8m4HLpWwWvJjzFud/0wNPCsfStglcTcLn0rYJXE3AmIyp4WgDwpdK3PuTVhO8kIyp4WvhO0rc+5NUEAF8qIyp4WsCZ9K2CVxNwufStglcTnuLcb3rgaeFY+lbBqwm4XPpWwasJOJMRFTwtAPhq6Vsf8mrCt5ERFTwtfBvpWx/yagKAr5YRFTwt4Ez6VsGrCbhc+lbBqwlPce43PfC0cCx9q+DVBFwufavg1QScyYgKnhYAfLX0rV/xasL3kBEVPC18D+lbv+LVBABfLSMqeFrAmfStglcTcLn0rYJXE57i3G964GnhWPpWwasJuFz6VsGrCTiTERU8LQD4A9K3fsWrCd9ARlTwtPANpG/9ilcTAPwBGVHB0wLOpG8VvJqAy6VvFbya8BTnftMDTwvH0rcKXk3A5dK3Cl5NwJmMqOBpAcCfkb71Ia8mfAMZUcHTwjeQvvUhryYA+DMyooKnBZxJ3yp4NQGXS98qeDXhKc79pgeeFo6lbxW8moDLpW8VvJqAMxlRwdMCgD8mfetDXk342zKigqeFvy1960NeTQDwx2REBU8LOJO+VfBqAi6XvlXwasJTnPtNDzwtHEvfKng1AZdL3yp4NQFnMqKCpwUAf1L61oe8mvBXZUQFTwt/VfrWh7yaAOBPyogKnhZwJn2r4NUEXC59q+DVhKc495seeFo4lr5V8GoCLpe+VfBqAs5kRAVPCwD+pPStX/Fqwt+TERU8Lfw96Vu/4tUEAH9SRlTwtIAz6VsFrybgculbBa8mPMW53/TA08Kx9K2CVxNwufStglcTcCYjKnhaAPCHpW/9ilcT/pKMqOBp4S9J3/oVryYA+MMyooKnBZxJ3yp4NQGXS98qeDXhKc79pgeeFo6lbxW8moDLpW8VvJqAMxlRwdMCgD8vfetXvJrwN2REBU8Lf0P61q94NQHAn5cRFTwt4Ez6VsGrCbhc+lbBqwlPce43PfC0cCx9q+DVBFwufavg1QScyYgKnhYAXCJ961e8mnC5jKjgaeFy6Vu/4tUEAJfIiAqeFnAmfavg1QRcLn2r4NWEpzj3mx54WjiWvlXwagIul75V8GoCzmREBU8LAK6SvvUrXk24VkZU8LRwrfStX/FqAoCrZEQFTws4k75V8GoCLpe+VfBqwlOc+00PPC0cS98qeDUBl0vfKng1AWcyooKnBQAXSt/6kFcTrpURFTwtXCt960NeTQBwoYyo4GkBZ9K3Cl5NwOXStwpeTXiKc7/pgaeFY+lbBa8m4HLpWwWvJuBMRlTwtADgWulbH/JqwoUyooKnhQulb33IqwkArpURFTwt4Ez6VsGrCbhc+lbBqwlPce43PfC0cCx9q+DVBFwufavg1QScyYgKnhYAXC5960NeTbhKRlTwtHCV9K0PeTUBwOUyooKnBZxJ3yp4NQGXS98qeDXhKc79pgeeFo6lbxW8moDLpW8VvJqAMxlRwdMCgL8hfetDXk24REZU8LRwifStD3k1AcDfkBEVPC3gTPpWwasJuFz6VsGrCU9x7jc98LRwLH2r4NUEXC59q+DVBJzJiAqeFgD8Delbv+LVhD8vIyp4Wvjz0rd+xasJAP6GjKjgaQFn0rcKXk3A5dK3Cl5NeIpzv+mBp4Vj6VsFrybgculbBa8m4ExGVPC0AOAvSd/6Fa8m/GEZUcHTwh+WvvUrXk0A8JdkRAVPCziTvlXwagIul75V8GrCU5z7TQ88LRxL3yp4NQGXS98qeDUBZzKigqcFAH9P+tYBryb8MRlRwdPCH5O+dcCrCQD+noyo4GkBZ9K3Cl5NwOXStwpeTXiKc7/pgaeFY+lbBa8m4HLpWwWvJuBMRlTwtADgr0rfOuDVhD8jIyp4Wvgz0rcOeDUBwF+VERU8LeBM+lbBqwm4XPpWwasJT3HuNz3wtHAsfavg1QRcLn2r4NUEnMmICp4WAPxt6VsHvJrwB2REBU8Lf0D61gGvJgD42zKigqcFnEnfKng1AZdL3yp4NeEpzv2mB54WjqVvFbyagMulbxW8moAzGVHB0wKAbyB964BXE75aRlTwtPDV0rcOeDUBwDeQERU8LeBM+lbBqwm4XPpWwasJT3HuNz3wtHAsfavg1QRcLn2r4NUEnMmICp4WAHwP6VsHvJrwpTKigqeFL5W+dcCrCQC+h4yo4GkBZ9K3Cl5NwOXStwpeTXiKc7/pgaeFY+lbBa8m4HLpWwWvJuBMRlTwtADg20jfOuDVhK+TERU8LXyd9K0DXk0A8G1kRAVPCziTvlXwagIul75V8GrCU5z7TQ88LRxL3yp4NQGXS98qeDUBZzKigqcFAN9J+tYBryZ8kYyo4Gnhi6RvHfBqAoDvJCMqeFrAmfStglcTcLn0rYJXE57i3G964GnhWPpWwasJuFz6VsGrCTiTERU8LQD4ZtK3Dng14StkRAVPC18hfeuAVxMAfDMZUcHTAs6kbxW8moDLpW8VvJrwFOd+0wNPC8fStwpeTcDl0rcKXk3AmYyo4GkBwPeTvnXAqwm/LSMqeFr4belbB7yaAOD7yYgKnhZwJn2r4NUEXC59q+DVhKc495seeFo4lr5V8GoCLpe+VfBqAs5kRAVPCwC+pfStM15N+A0ZUcHTwu9J3zrg1QQA31JGVPC0gDPpWwWvJuBy6VsFryY8xbnf9MDTwrH0rYJXE3C59K2CVxNwJiMqeFoA8F2lb53xasKzMqKCp4XfkL51wKsJAL6rjKjgaQFn0rcKXk3A5dK3Cl5NeIpzv+mBp4Vj6VsFrybgculbBa8m4ExGVPC0AOAbS98649WEp2REBU8LT0nfOuPVBADfWEZU8LSAM+lbBa8m4HLpWwWvJjzFud/0wNPCsfStglcTcLn0rYJXE3AmIyp4WgDwvaVvnfFqwudlRAVPC5+XvnXGqwkAvreMqOBpAWfStwpeTcDl0rcKXk14inO/6YGnhWPpWwWvJuBy6VsFrybgTEZU8LQA4NtL3zrm1YTPyIgKnhY+KX3rjFcTAHx7GVHB0wLOpG8VvJqAy6VvFbya8BTnftMDTwvH0rcKXk3A5dK3Cl5NwJmMqOBpAcCLSN8649WEYxlRwdPCsfStM15NAPAiMqKCpwWcSd8qeDUBl0vfKng14SnO/aYHnhaOpW8VvJqAy6VvFbyagDMZUcHTAoDXkb51xqsJZzKigqeFM+lbZ7yaAOB1ZEQFTws4k75V8GoCLpe+VfBqwlOc+00PPC0cS98qeDUBl0vfKng1AWcyooKnBQAvJX3rmFcTfiUjKnhaOJC+dcarCQBeSkZU8LSAM+lbBa8m4HLpWwWvJjzFud/0wNPCsfStglcTcLn0rYJXE3AmIyp4WgDwatK3jnk14UMZUcHTwofSt455NQHAq8mICp4WcCZ9q+DVBFwufavg1YSnOPebHnhaOJa+VfBqAi6XvlXwagLOZEQFTwsAXlP61hmvJtQyooKnhVr61jGvJgB4QRlRwdMCzqRvFbyagMulbxW8mvAU537TA08Lx9K3Cl5NwOXStwpeTcCZjKjgaQHAy0rfOubVhP9LRlTwtFBI3zrj1QQALysjKnhawJn0rYJXE3C59K2CVxOe4txveuBp4Vj6VsGrCbhc+lbBqwk4kxEVPC0AeGXpW8e8mvC/ZEQFTwv/S/rWMa8mAHhlGVHB0wLOpG8VvJqAy6VvFbya8BTnftMDTwvH0rcKXk3A5dK3Cl5NwJmMqOBpAcCLS9/6DK8mPMiICp4WHqRvfYZXEwC8uIyo4GkBZ9K3Cl5NwOXStwpeTXiKc7/pgaeFY+lbBa8m4HLpWwWvJuBMRlTwtADgR0jfOubVhP+RERU8LfyP9K3P8GoCgNeXERU8LeBM+lbBqwm4XPpWwasJT3HuNz3wtHAsfavg1QRcLn2r4NUEnMmICp4WAPwU6Vuf4dUEKSMqeFqQ0rc+w6sJAH6KjKjgaQFn0rcKXk3A5dK3Cl5NeIpzv+mBp4Vj6VsFrybgculbBa8m4ExGVPC0AOAHSd/6JK+m95YRFTytt5e+9RleTQDwg2REBU8LOJO+VfBqAi6XvlXwasJTnPtNDzwtHEvfKng1AZdL3yp4NQFnMqKCpwUAP0v61id5Nb2xjKjgab2x9K1P8moCgJ8lIyp4WsCZ9K2CVxNwufStglcTnuLcb3rgaeFY+lbBqwm4XPpWwasJOJMRFTwtAPiJ0rc+yavpLWVEBU/rLaVvfZJXEwD8RBlRwdMCzqRvFbyagMulbxW8mvAU537TA08Lx9K3Cl5NwOXStwpeTcCZjKjgaQHAz5W+9UleTW8mIyp4Wm8mfeuTvJoA4OfKiAqeFnAmfavg1QRcLn2r4NWEpzj3mx54WjiWvlXwagIul75V8GoCzmREBU8LAH669K1P8mp6GxlRwdN6G+lbn+fVBAA/WkZU8LSAM+lbBa8m4HLpWwWvJjzFud/0wNPCsfStglcTcLn0rYJXE3AmlR/kpAAAIABJREFUIyp4WgDwBtK3Ps+r6Q1kRAVP6w2kb32eVxMAvIGMqOBpAWfStwpeTcDl0rcKXk14inO/6YGnhWPpWwWvJuBy6VsFrybgTEZU8LQA4G2kb32SV9NPlxEVPK0fLX3r87yaAOBtZEQFTws4k75V8GoCLpe+VfBqwlOc+00PPC0cS98qeDUBl0vfKng1AWcyooKnBQDvJH3r87yafq6MqOBp/VzpW5/n1QQA7yQjKnhawJn0rYJXE3C59K2CVxOe4txveuBp4Vj6VsGrCbhc+lbBqwk4kxEVPC0AeD/pW5/n1fQTZUQFT+snSt/6PK8mAHg/GVHB0wLOpG8VvJqAy6VvFbya8BTnftMDTwvH0rcKXk3A5dK3Cl5NwJmMqOBpAcC7St/6PK+mnyUjKnhaP0v61lO8mgDgLWVEBU8LOJO+VfBqAi6XvlXwasJTnPtNDzwtHEvfKng1AZdL3yp4NQFnMqKCpwUAbyx961leTT9CRlTwtH6E9K1neTUBwBvLiAqeFnAmfavg1QRcLn2r4NWEpzj3mx54WjiWvlXwagIul75V8GoCzmREBU8LAN5e+tazvJpeXEZU8LReXPrWs7yaAODtZUQFTws4k75V8GoCLpe+VfBqwlOc+00PPC0cS98qeDUBl0vfKng1AWcyooKnBQCQ0rd+j1fTa8qICp7Wa0rf+g1eTQCA/19GVPC0gDPpWwWvJuBy6VsFryY8xbnf9MDTwrH0rYJXE3C59K2CVxNwJiMqeFoAgP+RvvV7vJpeTUZU8LReTfrW7/FqAgD8j4yo4GkBZ9K3Cl5NwOXStwpeTXiKc7/pgaeFY+lbBa8m4HLpWwWvJuBMRlTwtAAA/6/0rd/m1fQiMqKCp/Ui0rd+m1cTAOD/lREVPC3gTPpWwasJuFz6VsGrCU9x7jc98LRwLH2r4NUEXC59q+DVBJzJiAqeFgDg/5K+9du8mr69jKjgaX176Vu/zasJAPB/yYgKnhZwJn2r4NUEXC59q+DVhKc495seeFo4lr5V8GoCLpe+VfBqAs5kRAVPCwBQS9/6Cl5N31VGVPC0vqv0ra/g1QQAqGVEBU8LOJO+VfBqAi6XvlXwasJTnPtNDzwtHEvfKng1AZdL3yp4NQFnMqKCpwUA+JX0rS/i1fTNZEQFT+ubSd/6Il5NAIBfyYgKnhZwJn2r4NUEXC59q+DVhKc495seeFo4lr5V8GoCLpe+VfBqAs5kRAVPCwBwJn3rS3k1fQMZUcHT+gbSt76OVxMA4FhGVPC0gDPpWwWvJuBy6VsFryY8xbnf9MDTwrH0rYJXE3C59K2CVxNwJiMqeFoAgE9K3/pSXk1/T0ZU8LT+nvStL+XVBAD4pIyo4GkBZ9K3Cl5NwOXStwpeTXiKc7/pgaeFY+lbBa8m4HLpWwWvJuBMRlTwtAAAT0nf+mpeTZfLiAqe1rXSt/4AryYAwFMyooKnBZxJ3yp4NQGXS98qeDXhKc79pgeeFo6lbxW8moDLpW8VvJqAMxlRwdMCAPyG9K0/w6vpEhlRwdP689K3/gyvJgDA78mICp4WcCZ9q+DVBFwufavg1YSnOPebHnhaOJa+VfBqAi6XvlXwagLOZEQFTwsA8BXSt/4kr6Y/IyMqeFp/QPrWH+bVBAD4ChlRwdMCzqRvFbyagMulbxW8mvAU537TA08Lx9K3Cl5NwOXStwpeTcCZjKjgaQEAvk761iW8mr5IRlTwtL5I+taf59UEAPhSGVHB0wLOpG8VvJqAy6VvFbya8BTnftMDTwvH0rcKXk3A5dK3Cl5NwJmMqOBpAQD+gPStv8Gr6ZMyooKn9UnpW3+DVxMA4A/IiAqeFnAmfavg1QRcLn2r4NWEpzj3mx54WjiWvlXwagIul75V8GoCzmREBU8LAPAnpW99G15N/0tGVPC0/pf0rW/DqwkA8CdlRAVPCziTvlXwagIul75V8GrCU5z7TQ88LRxL3yp4NQGXS98qeDUBZzKigqcFALhK+tY39N//qPLPv/p+vJoAAFfJiAqeFnAmfavg1QRcLn2r4NWEpzj3mx54WjiWvlXwagIul75V8GoCzmREBU8LAHC59K3v47//UeWff/VteDUBAC6XERU8LeBM+lbBqwm4XPpWwasJT3HuNz3wtHAsfavg1QRcLn2r4NUEnMmICp4WAODvSd/66/77H1X++Vd/m1cTAODvyYgKnhZwJn2r4NUEXC59q+DVhKc495se/fOv8BW8moDLpW8VvJqAMxlRwdMCAHwb6VvX++9/VPnnX/0NXk0AgO8hIyp4WsCZ9K2CVxNwufQtfDXnftOjf/4VvoJXE3C59K2CVxNwJiMqeFoAgG8pfesa//2PKv/8q0t4NQEAvqWMqOBpAWfStwpeTcDl0rfw1Zz7TY/++Vf4Cl5NwOXStwpeTcCZjKjgaQEAXkH61h/y3/+o8s+/+mO8mgAA315GVPC0gDPpWwWvJuBy6Vv4as79pkf//Ct8Ba8m4HLpWwWvJuBMRlTwtAAALyh966v89z+q/POvvohXEwDgBWVEBU8LOJO+VfBqAi6XvoWv5txvevTPv8JX8GoCLpe+VfBqAs5kRAVPCwDwU6RvPeG//1Hln3/1SV5NAIAfJCMqeFrAmfStglcTcLn0LXw1537To3/+FX6bVxPwN6RvFbyagDMZUcHTAgC8jfSt/+2//1Hln3/1v3g1AQDeRkZU8LSAM+lbBa8m4G9I38KXcu43PfrnX+G3eTUBf0P6VsGrCTiTERU8LQDAe8uICp4WAOC9ZUQFTws4k75V8GoC/ob0LXwp537To3/+FX6PVxPwl6RvFbyagDMZUcHTAgC8t4yo4GkBAN5bRlTwtIAz6VsFrybgL0nfwtdx7jc9+udf4VleTcBflb5V8GoCzmREBU8LAPDeMqKCpwUAeG8ZUcHTAs6kbxW8moC/Kn0LX8G53/TA0wLwstK3Cl5NwJmMqOBpAQDeW0ZU8LQAAO8tIyp4WsCZ9K2CVxOAH8G53/TA0wLwstK3Cl5NwJmMqOBpAQDeW0ZU8LQAAO8tIyp4WsCZ9K2CVxOAH8G53/TA0wLwstK3Cl5NwJmMqOBpAQDeW0ZU8LQAAO8tIyp4WsCZ9K2CVxOAH8G53/TA0wLwstK3Cl5NwJmMqOBpAQDeW0ZU8LQAAO8tIyp4WsCZ9K2CVxOAH8G53/TA0wLwstK3Cl5NwJmMqOBpAQDeW0ZU8LQAAO8tIyp4WsCZ9K2CVxOAH8G53/TA0wLwstK3Cl5NwJmMqOBpAQDeW0ZU8LQAAO8tIyp4WsCZ9K2CVxOAH8G53/TA0wLwstK3Cl5NwJmMqOBpAQDeW0ZU8LQAAO8tIyp4WsCZ9K2CVxOAH8G53/TA0wLwstK3Cl5NwJmMqOBpAQDeW0ZU8LQAAO8tIyp4WsCZ9K2CVxOAH8G53/TA0wLwstK3Cl5NwJmMqOBpAQDeW0ZU8LQAAO8tIyp4WsCZ9K2CVxOAH8G53/TA0wLwstK3Cl5NwJmMqOBpAQDeW0ZU8LQAAO8tIyp4WsCZ9K2CVxOAH8G53/TA0wLwstK3Cl5NwJmMqOBpAQDeW0ZU8LQAAO8tIyp4WsCZ9K2CVxOAH8G53/TA0wLwstK3Cl5NwJmMqOBpAQDeW0ZU8LQAAO8tIyp4WsCZ9K2CVxOAH8G53/TA0wLwstK3Cl5NwJmMqOBpAQDeW0ZU8LQAAO8tIyp4WsCZ9K2CVxOAH8G53/TA0wLwstK3Cl5NwJmMqOBpAQDeW0ZU8LQAAO8tIyp4WsCZ9K2CVxOAH8G53/TA0wLwstK3Cl5NwJmMqOBpAQDeW0ZU8LQAAO8tIyp4WsCZ9K2CVxOAH8G53/TA0wLwstK3Cl5NwJmMqOBpAQDeW0ZU8LQAAO8tIyp4WsCZ9K2CVxOAH8G53/TA0wLwstK3Cl5NwJmMqOBpAQDeW0ZU8LQAAO8tIyp4WsCZ9K2CVxOAH8G53/TA0wLwstK3Cl5NwJmMqOBpAQDeW0ZU8LQAAO8tIyp4WsCZ9K2CVxOAH8G53/TA0wLwstK3Cl5NwJmMqOBpAQDeW0ZU8LQAAO8tIyp4WsCZ9K2CVxOAH8G53/TA0wLwstK3Cl5NwJmMqOBpAQDeW0ZU8LQAAO8tIyp4WsCZ9K2CVxOAH8G53/TA0wLwstK3Cl5NwJmMqOBpAQDeW0ZU8LQAAO8tIyp4WsCZ9K2CVxOAH8G53/TA0wLwstK3Cl5NwJmMqOBpAQDeW0ZU8LQAAO8tIyp4WsCZ9K2CVxOAH8G53/TA0wLwstK3Cl5NwJmMqOBpAQDeW0ZU8LQAAO8tIyp4WsCZ9K2CVxOAH8G53/TA0wLwstK3Cl5NwJmMqOBpAQDeW0ZU8LQAAO8tIyp4WsCZ9K2CVxOAH8G53/TA0wLwstK3Cl5NwJmMqOBpAQDeW0ZU8LQAAO8tIyp4WsCZ9K2CVxOAH8G53/TA0wLwstK3Cl5NwJmMqOBpAQDeW0ZU8LQAAO8tIyp4WsCZ9K2CVxOAH8G53/TA0wLwstK3Cl5NwJmMqOBpAQDeW0ZU8LQAAO8tIyp4WsCZ9K2CVxOAH8G53/TA0wLwstK3Cl5NwJmMqOBpAQDeW0ZU8LQAAO8tIyp4WsCZ9K2CVxOAH8G53/TA0wLwstK3Cl5NwJmMqOBpAQDeW0ZU8LQAAO8tIyp4WsCZ9K2CVxOAH8G53/TA0wLwstK3Cl5NwJmMqOBpAQDeW0ZU8LQAAO8tIyp4WsCZ9K2CVxOAH8G53/TA0wLwstK3Cl5NwJmMqOBpAQDeW0ZU8LQAAO8tIyp4WsCZ9K2CVxOAH8G53/TA0wLwstK3Cl5NwJmMqOBpAQDeW0ZU8LQAAO8tIyp4WsCZ9K2CVxOAH8G53/TA0wLwstK3Cl5NwJmMqOBpAQDeW0ZU8LQAAO8tIyp4WsCZ9K2CVxOAH8G53/TA0wLwstK3Cl5NwJmMqOBpAQDeW0ZU8LQAAO8tIyp4WsCZ9K2CVxOAH8G53/TA0wLwstK3Cl5NwJmMqOBpAQDeW0ZU8LQAAO8tIyp4WsCZ9K2CVxOAH8G53/TA0wLwstK3Cl5NwJmMqOBpAQDeW0ZU8LQAAO8tIyp4WsCZ9K2CVxOAH8G53/TA0wLwstK3Cl5NwJmMqOBpAQDeW0ZU8LQAAO8tIyp4WsCZ9K2CVxOAH8G53/TA0wLwstK3Cl5NwJmMqOBpAQDeW0ZU8LQAAO8tIyp4WsCZ9K2CVxOAH8G53/TA0wLwstK3Cl5NwJmMqOBpAQDeW0ZU8LQAAO8tIyp4WsCZ9K2CVxOAH8G53/TA0wLwstK3Cl5NwJmMqOBpAQDeW0ZU8LQAAO8tIyp4WsCZ9K2CVxOAH8G53/TA0wLwstK3Cl5NwJmMqOBpAQDeW0ZU8LQAAO8tIyp4WsCZ9K2CVxOAH8G53/TA0wLwstK3Cl5NwJmMqOBpAQDeW0ZU8LQAAO8tIyp4WsCZ9K2CVxOAH8G53/TA0wLwstK3Cl5NwJmMqOBpAQDeW0ZU8LQAAO8tIyp4WsCZ9K2CVxOAH8G53/TA0wLwstK3Cl5NwJmMqOBpAQDeW0ZU8LQAAO8tIyp4WsCZ9K2CVxOAH8G53/TA0wLwstK3Cl5NwJmMqOBpAQDeW0ZU8LQAAO8tIyp4WsCZ9K2CVxOAH8G53/TA0wLwstK3Cl5NwJmMqOBpAQDeW0ZU8LQAAO8tIyp4WsCZ9K2CVxOAH8G53/TA0wLwstK3Cl5NwJmMqOBpAQDeW0ZU8LQAAO8tIyp4WsCZ9K2CVxOAH8G53/TA0wLwstK3Cl5N/x97cGxrMY4FUbDbFGgrJUXB8G4UCml8jdtrfUDOBbjOAE88VcCazKjhsgAAe8uMGi4LALC3zKjhsoA1uR41fA8B+ATnPPTisgD8rFyPGr6HgDWZUcNlAQD2lhk1XBYAYG+ZUcNlAWtyPWr4HgLwCc556MVlAfhZuR41fA8BazKjhssCAOwtM2q4LADA3jKjhssC1uR61PA9BOATnPPQi8sC8LNyPWr4HgLWZEYNlwUA2Ftm1HBZAIC9ZUYNlwWsyfWo4XsIwCc456EXlwXgZ+V61PA9BKzJjBouCwCwt8yo4bIAAHvLjBouC1iT61HD9xCAT3DOQy8uC8DPyvWo4XsIWJMZNVwWAGBvmVHDZQEA9pYZNVwWsCbXo4bvIQCf4JyHXlwWgJ+V61HD9xCwJjNquCwAwN4yo4bLAgDsLTNquCxgTa5HDd9DAD7BOQ+9uCwAPyvXo4bvIWBNZtRwWQCAvWVGDZcFANhbZtRwWcCaXI8avocAfIJzHnpxWQB+Vq5HDd9DwJrMqOGyAAB7y4waLgsAsLfMqOGygDW5HjV8DwH4BOc89OKyAPysXI8avoeANZlRw2UBAPaWGTVcFgBgb5lRw2UBa3I9avgeAvAJznnoxWUB+Fm5HjV8DwFrMqOGywIA7C0zargsAMDeMqOGywLW5HrU8D0E4BOc89CLywLws3I9avgeAtZkRg2XBQDYW2bUcFkAgL1lRg2XBazJ9ajhewjAJzjnoReXBeBn5XrU8D0ErMmMGi4LALC3zKjhsgAAe8uMGi4LWJPrUcP3EIBPcM5DLy4LwM/K9ajhewhYkxk1XBYAYG+ZUcNlAQD2lhk1XBawJtejhu8hAJ/gnIdeXBaAn5XrUcP3ELAmM2q4LADA3jKjhssCAOwtM2q4LGBNrkcN30MAPsE5D724LAA/K9ejhu8hYE1m1HBZAIC9ZUYNlwUA2Ftm1HBZwJpcjxq+hwB8gnMeenFZAH5WrkcN30PAmsyo4bIAAHvLjBouCwCwt8yo4bKANbkeNXwPAfgE5zz04rIA/Kxcjxq+h4A1mVHDZQEA9pYZNVwWAGBvmVHDZQFrcj1q+B4C8AnOeejFZQH4WbkeNXwPAWsyo4bLAgDsLTNquCwAwN4yo4bLAtbketTwPQTgE5zz0IvLAvCzcj1q+B4C1mRGDZcFANhbZtRwWQCAvWVGDZcFrMn1qOF7CMAnOOehF5cF4GfletTwPQSsyYwaLgsAsLfMqOGyAAB7y4waLgtYk+tRw/cQgE9wzkMvLgvAz8r1qOF7CFiTGTVcFgBgb5lRw2UBAPaWGTVcFrAm16OG7yEAn+Cch15cFoCfletRw/cQsCYzargsAMDeMqOGywIA7C0zargsYE2uRw3fQwA+wTkPvbgsAD8r16OG7yFgTWbUcFkAgL1lRg2XBQDYW2bUcFnAmlyPGr6HAHyCcx56cVkAflauRw3fQ8CazKjhsgAAe8uMGi4LALC3zKjhsoA1uR41fA8B+ATnPPTisgD8rFyPGr6HgDWZUcNlAQD2lhk1XBYAYG+ZUcNlAWtyPWr4HgLwCc556MVlAfhZuR41fA8BazKjhssCAOwtM2q4LADA3jKjhssC1uR61PA9BOATnPPQi8sC8LNyPWr4HgLWZEYNlwUA2Ftm1HBZAIC9ZUYNlwWsyfWo4XsIwCc456EXlwXgZ+V61PA9BKzJjBouCwCwt8yo4bIAAHvLjBouC1iT61HD9xCAT3DOQy8uC8DPyvWo4XsIWJMZNVwWAGBvmVHDZQEA9pYZNVwWsCbXo4bvIQCf4JyHXlwWgJ+V61HD9xCwJjNquCwAwN4yo4bLAgDsLTNquCxgTa5HDd9DAD7BOQ+9uCwAPyvXo4bvIWBNZtRwWQCAvWVGDZcFANhbZtRwWcCaXI8avocAfIJzHnpxWQB+Vq5HDd9DwJrMqOGyAAB7y4waLgsAsLfMqOGygDW5HjV8DwH4BOc89OKyAPysXI8avoeANZlRw2UBAPaWGTVcFgBgb5lRw2UBa3I9avgeAvAJznnoxWUB+Fm5HjV8DwFrMqOGywIA7C0zargsAMDeMqOGywLW5HrU8D0E4BOc89CLywLws3I9avgeAtZkRg2XBQDYW2bUcFkAgL1lRg2XBazJ9ajhewjAJzjnoReXBeBn5XrU8D0ErMmMGi4LALC3zKjhsgAAe8uMGi4LWJPrUcP3EIBPcM5DLy4LwM/K9ajhewhYkxk1XBYAYG+ZUcNlAQD2lhk1XBawJtejhu8hAJ/gnIdeXBaAn5XrUcP3ELAmM2q4LADA3jKjhssCAOwtM2q4LGBNrkcN30MAPsE5D724LAA/K9ejhu8hYE1m1HBZAIC9ZUYNlwUA2Ftm1HBZwJpcjxq+hwB8gnMeenFZAH5WrkcN30PAmsyo4bIAAHvLjBouCwCwt8yo4bKANbkeNXwPAfgE5zz04rIA/Kxcjxq+h4A1mVHDZQEA9pYZNVwWAGBvmVHDZQFrcj1q+B4C8AnOeejFZQH4WbkeNXwPAWsyo4bLAgDsLTNquCwAwN4yo4bLAtbketTwPQTgE5zz0IvLAvCzcj1q+B4C1mRGDZcFANhbZtRwWQCAvWVGDZcFrMn1qOF7CMAnOOehF5cF4GfletTwPQSsyYwaLgsAsLfMqOGyAAB7y4waLgtYk+tRw/cQgE9wzkMvLgvAz8r1qOF7CFiTGTVcFgBgb5lRw2UBAPaWGTVcFrAm16OG7yEAn+Cch15cFoCfletRw/cQsCYzargsAMDeMqOGywIA7C0zargsYE2uRw3fQwA+wTkPvbgsAD8r16OG7yFgTWbUcFkAgL1lRg2XBQDYW2bUcFnAmlyPGr6HAHyCcx56cVkAflauRw3fQ8CazKjhsgAAe8uMGi4LALC3zKjhsoA1uR41fA8B+ATnPPTisgD8rFyPGr6HgDWZUcNlAQD2lhk1XBYAYG+ZUcNlAWtyPWr4HgLwCc556MVlAfhZuR41fA8BazKjhssCAOwtM2q4LADA3jKjhssC1uR61PA9BOATnPPQi8sC8LNyPWr4HgLWZEYNlwUA2Ftm1HBZAIC9ZUYNlwWsyfWo4XsIwCc456EXlwXgZ+V61PA9BKzJjBouCwCwt8yo4bIAAHvLjBouC1iT61HD9xCAT3DOQy8uC8DPyvWo4XsIWJMZNVwWAGBvmVHDZQEA9pYZNVwWsCbXo4bvIQCf4JyHXlwWgJ+V61HD9xCwJjNquCwAwN4yo4bLAgDsLTNquCxgTa5HDd9DAD7BOQ+9uCwAPyvXo4bvIWBNZtRwWQCAvWVGDZcFANhbZtRwWcCaXI8avocAfIJzHnpxWQB+Vq5HDd9DwJrMqOGyAAB7y4waLgsAsLfMqOGygDW5HjV8DwH4BOc89OKyAPysXI8avoeANZlRw2UBAPaWGTVcFgBgb5lRw2UBa3I9avgeAvAJznnoxWUB+Fm5HjV8DwFrMqOGywIA7C0zargsAMDeMqOGywLW5HrU8D0E4BOc89CLywLws3I9avgeAtZkRg2XBQDYW2bUcFkAgL1lRg2XBazJ9ajhewjAJzjnoReXBeBn5XrU8D0ErMmMGi4LALC3zKjhsgAAe8uMGi4LWJPrUcP3EIBPcM5DLy4LwM/K9ajhewhYkxk1XBYAYG+ZUcNlAQD2lhk1XBawJtejhu8hAJ/gnIdeXBaAn5XrUcP3ELAmM2q4LADA3jKjhssCAOwtM2q4LGBNrkcN30MAPsE5D724LAA/K9ejhu8hYE1m1HBZAIC9ZUYNlwUA2Ftm1HBZwJpcjxq+hwB8gnMeenFZAH5WrkcN30PAmsyo4bIAAHvLjBouCwCwt8yo4bKANbkeNXwPAfgE5zz04rIA/Kxcjxq+h4A1mVHDZQEA9pYZNVwWAGBvmVHDZQFrcj1q+B4C8AnOeejFZQH4WbkeNXwPAWsyo4bLAgDsLTNquCwAwN4yo4bLAtbketTwPQTgE5zz0IvLAvCzcj1q+B4C1mRGDZcFANhbZtRwWQCAvWVGDZcFrMn1qOF7CMAnOOehF5cF4GfletTwPQSsyYwaLgsAsLfMqOGyAAB7y4waLgtYk+tRw/cQgE9wzkMvLgvAz8r1qOF7CFiTGTVcFgBgb5lRw2UBAPaWGTVcFrAm16OG7yEAn+Cch15cFoCfletRw/cQsCYzargsAMDeMqOGywIA7C0zargsYE2uRw3fQwA+wTkPvbgsAD8r16OG7yFgTWbUcFkAgL1lRg2XBQDYW2bUcFnAmlyPGr6HAHyCcx56cVkAflauRw3fQ8CazKjhsgAAe8uMGi4LALC3zKjhsoA1uR41fA8B+ATnPPTisgD8rFyPGr6HgDWZUcNlAQD2lhk1XBYAYG+ZUcNlAWtyPWr4HgLwCc556MVlAfhZuR41fA8BazKjhssCAOwtM2q4LADA3jKjhssC1uR61PA9BOATnPPQi8sC8LNyPWr4HgLWZEYNlwUA2Ftm1HBZAIC9ZUYNlwWsyfWo4XsIwCc456EXlwXgZ+V61PA9BKzJjBouCwCwt8yo4bIAAHvLjBouC1iT61HD9xCAT3DOQy8uC8DPyvWo4XsIWJMZNVwWAGBvmVHDZQEA9pYZNVwWsCbXo4bvIQCf4JyHXlwWgJ+V61HD9xCwJjNquCwAwN4yo4bLAgDsLTNquCxgTa5HDd9DAD7BOQ+9uCwAPyvXo4bvIWBNZtRwWQCAvWVGDZcFANhbZtRwWcCaXI8avocAfIJzHnpxWQB+Vq5HDd9DwJrMqOGyAAB7y4waLgsAsLfMqOGygDW5HjV8DwH4BOc89OKyAPysXI8avoeANZlRw2UBAPaWGTVcFgBgb5lRw2UBa3I9avgeAvAJznnoxWUB+Fm5HjV8DwFrMqOGywIA7C0zargsAMDeMqOGywLW5HrU8D0E4BOc89CLywLws3I9avgeAtZkRg2XBQDYW2bUcFkAgL1lRg2XBazJ9ajhewjAJzjnoReXBeBn5XrU8D0ErMmMGi4LALC3zKjhsgAAe8uMGi4LWJPrUcP3EIBPcM5DLy4LwM/K9ajhewhYkxk1XBYAYG+ZUcNlAQD2lhk1XBawJtejhu8hAJ/gnIdeXBaAn5XrUcP3ELAmM2q4LADA3jKjhssCAOwtM2q4LGBNrkcN30MAPsGCR8PuAAAgAElEQVQ5D724LAA/K9ejhu8hYE1m1HBZAIC9ZUYNlwUA2Ftm1HBZwJpcjxq+hwB8gnMeenFZAH5WrkcN30PAmsyo4bIAAHvLjBouCwCwt8yo4bKANbkeNXwPAfgE5zz04rIA/Kxcjxq+h4A1mVHDZQEA9pYZNVwWAGBvmVHDZQFrcj1q+B4C8AnOeejFZQH4WbkeNXwPAWsyo4bLAgDsLTNquCwAwN4yo4bLAtbketTwPQTgE5zz0IvLAvCzcj1q+B4C1mRGDZcFANhbZtRwWQCAvWVGDZcFrMn1qOF7CMAnOOehF5cF4GfletTwPQSsyYwaLgsAsLfMqOGyAAB7y4waLgtYk+tRw/cQgE9wzkMvLgvAz8r1qOF7CFiTGTVcFgBgb5lRw2UBAPaWGTVcFrAm16OG7yEAn+Cch15cFoCfletRw/cQsCYzargsAMDeMqOGywIA7C0zargsYE2uRw3fQwA+wTkPvbgsAD8r16OG7yFgTWbUcFkAgL1lRg2XBQDYW2bUcFnAmlyPGr6HAHyCcx56cVkAflauRw3fQ8CazKjhsgAAe8uMGi4LALC3zKjhsoA1uR41fA8B+ATnPPTisgD8rFyPGr6HgDWZUcNlAQD2lhk1XBYAYG+ZUcNlAWtyPWr4HgLwCc556MVlAfhZuR41fA8BazKjhssCAOwtM2q4LADA3jKjhssC1uR61PA9BOATnPPQi8sC8LNyPWr4HgLWZEYNlwUA2Ftm1HBZAIC9ZUYNlwWsyfWo4XsIwCc456EXlwXgZ+V61PA9BKzJjBouCwCwt8yo4bIAAHvLjBouC1iT61HD9xCAT3DOQwAAAAAAAAAAAP8V5zwEAAAAAAAAAADwX3HOQwAAAAAAAAAAAP8V5zwEAAAAAAAAAADwX3HOQwAAAAAAAAAAAP8V5zwEAAAAAAAAAADwX3HOQwAAAAAAAAAAAP8V5zwEAAAAAAAAAADwX3HOQwAAAAAAAAAAAP8V5zz04rIA/Kxcjxq+h4A1mVHDZQEA9pYZNVwWAGBvmVHDZQFrcj1q+B4C8AnOeejFZQH4WbkeNXwPAWsyo4bLAgDsLTNquCwAwN4yo4bLAtbketTwPQTgE5zz0IvLAvCzcj1q+B4C1mRGDZcFANhbZtRwWQCAvWVGDZcFrMn1qOF7CMAnOOehF5cF4GfletTwPQSsyYwaLgsAsLfMqOGyAAB7y4waLgtYk+tRw/cQgE9wzkMvLgvAz8r1qOF7CFiTGTVcFgBgb5lRw2UBAPaWGTVcFrAm16OG7yEAn+Cch15cFoCfletRw/cQsCYzargsAMDeMqOGywIA7C0zargsYE2uRw3fQwA+wTkPvbgsAD8r16OG7yFgTWbUcFkAgL1lRg2XBQDYW2bUcFnAmlyPGr6HAHyCcx56cVkAflauRw3fQ8CazKjhsgAAe8uMGi4LALC3zKjhsoA1uR41fA8B+ATnPPTisgD8rFyPGr6HgDWZUcNlAQD2lhk1XBYAYG+ZUcNlAWtyPWr4HgLwCc556MVlAfhZuR41fA8BazKjhssCAOwtM2q4LADA3jKjhssC1uR61PA9BOATnPPQi8sC8LNyPWr4HgLWZEYNlwUA2Ftm1HBZAIC9ZUYNlwWsyfWo4XsIwCc456EXlwXgZ+V61PA9BKzJjBouCwCwt8yo4bIAAHvLjBouC1iT61HD9xCAT3DOQy8uC8DPyvWo4XsIWJMZNVwWAGBvmVHDZQEA9pYZNVwWsCbXo4bvIQCf4JyHXlwWgJ+V61HD9xCwJjNquCwAwN4yo4bLAgDsLTNquCxgTa5HDd9DAD7BOQ+9uCwAPyvXo4bvIWBNZtRwWQCAvWVGDZcFANhbZtRwWcCaXI8avocAfIJzHnpxWQB+Vq5HDd9DwJrMqOGyAAB7y4waLgsAsLfMqOGygDW5HjV8DwH4BOc89OKyAPysXI8avoeANZlRw2UBAPaWGTVcFgBgb5lRw2UBa3I9avgeAvAJznnoxWUB+Fm5HjV8DwFrMqOGywIA7C0zargsAMDeMqOGywLW5HrU8D0E4BOc89CLywLws3I9avgeAtZkRg2XBQDYW2bUcFkAgL1lRg2XBazJ9ajhewjAJzjnoReXBeBn5XrU8D0ErMmMGi4LALC3zKjhsgAAe8uMGi4LWJPrUcP3EIBPcM5DLy4LwM/K9ajhewhYkxk1XBYAYG+ZUcNlAQD2lhk1XBawJtejhu8hAJ/gnIdeXBaAn5XrUcP3ELAmM2q4LADA3jKjhssCAOwtM2q4LGBNrkcN30MAPsE5D724LAA/K9ejhu8hYE1m1HBZAIC9ZUYNlwUA2Ftm1HBZwJpcjxq+hwB8gnMeenFZAH5WrkcN30PAmsyo4bIAAHvLjBouCwCwt8yo4bKANbkeNXwPAfgE5zz04rIA/Kxcjxq+h4A1mVHDZQEA9pYZNVwWAGBvmVHDZQFrcj1q+B4C8AnOeejFZQH4WbkeNXwPAWsyo4bLAgDsLTNquCwAwN4yo4bLAtbketTwPQTgE5zz0IvLAvCzcj1q+B4C1mRGDZcFANhbZtRwWQCAvWVGDZcFrMn1qOF7CMAnOOehF5cF4GfletTwPQSsyYwaLgsAsLfMqOGyAAB7y4waLgtYk+tRw/cQgE9wzkMvLgvAz8r1qOF7CFiTGTVcFgBgb5lRw2UBAPaWGTVcFrAm16OG7yEAn+Cch15cFoCfletRw/cQsCYzargsAMDeMqOGywIA7C0zargsYE2uRw3fQwA+wTkPvbgsAD8r16OG7yFgTWbUcFkAgL1lRg2XBQDYW2bUcFnAmlyPGr6HAHyCcx56cVkAflauRw3fQ8CazKjhsgAAe8uMGi4LALC3zKjhsoA1uR41fA8B+ATnPPTisgD8rFyPGr6HgDWZUcNlAQD2lhk1XBYAYG+ZUcNlAWtyPWr4HgLwCc556MVlAfhZuR41fA8BazKjhssCAOwtM2q4LADA3jKjhssC1uR61PA9BOATnPPQi8sC8LNyPWr4HgLWZEYNlwUA2Ftm1HBZAIC9ZUYNlwWsyfWo4XsIwCc456EXlwXgZ+V61PA9BKzJjBouCwCwt8yo4bIAAHvLjBouC1iT61HD9xCAT3DOQy8uC8DPyvWo4XsIWJMZNVwWAGBvmVHDZQEA9pYZNVwWsCbXo4bvIQCf4JyHXlwWgJ+V61HD9xCwJjNquCwAwN4yo4bLAgDsLTNquCxgTa5HDd9DAD7BOQ+9uCwAPyvXo4bvIWBNZtRwWQCAvWVGDZcFANhbZtRwWcCaXI8avocAfIJzHnpxWQB+Vq5HDd9DwJrMqOGyAAB7y4waLgsAsLfMqOGygDW5HjV8DwH4BOc89OKyAPysXI8avoeANZlRw2UBAPaWGTVcFgBgb5lRw2UBa3I9avgeAvAJznnoxWUB+Fm5HjV8DwFrMqOGywIA7C0zargsAMDeMqOGywLW5HrU8D0E4BOc89CLywLws3I9avgeAtZkRg2XBQDYW2bUcFkAgL1lRg2XBazJ9ajhewjAJzjnoReXBeBn5XrU8D0ErMmMGi4LALC3zKjhsgAAe8uMGi4LWJPrUcP3EIBPcM5DLy4LwM/K9ajhewhYkxk1XBYAYG+ZUcNlAQD2lhk1XBawJtejhu8hAJ/gnIdeXBaAn5XrUcP3ELAmM2q4LADA3jKjhssCAOwtM2q4LGBNrkcN30MAPsE5D724LAA/K9ejhu8hYE1m1HBZAIC9ZUYNlwUA2Ftm1HBZwJpcjxq+hwB8gnMeenFZAH5WrkcN30PAmsyo4bIAAHvLjBouCwCwt8yo4bKANbkeNXwPAfgE5zz04rIA/Kxcjxq+h4A1mVHDZQEA9pYZNVwWAGBvmVHDZQFrcj1q+B4C8AnOeejFZQH4WbkeNXwPAWsyo4bLAgDsLTNquCwAwN4yo4bLAtbketTwPQTgE5zz0IvLAvCzcj1q+B4C1mRGDZcFANhbZtRwWQCAvWVGDZcFrMn1qOF7CMAnOOehF5cF4GfletTwPQSsyYwaLgsAsLfMqOGyAAB7y4waLgtYk+tRw/cQgE9wzkMvLgvAz8r1qOF7CFiTGTVcFgBgb5lRw2UBAPaWGTVcFrAm16OG7yEAn+Cch15cFoCfletRw/cQsCYzargsAMDeMqOGywIA7C0zargsYE2uRw3fQwA+wTkPvf3zrwB8ke8hYE1m1HBZAIC9ZUYNlwUA2Ftm1HBZwJpcjwB8nXMeevvnXwH4It9DwJrMqOGyAAB7y4waLgsAsLfMqOGygDW5HgH4Ouc89PbPvwLwRb6HgDWZUcNlAQD2lhk1XBYAYG+ZUcNlAWtyPQLwdc556O2ffwXgi3wPAWsyo4bLAgDsLTNquCwAwN4yo4bLAtbkegTg65zz0Ns//wrAF/keAtZkRg2XBQDYW2bUcFkAgL1lRg2XBazJ9QjA1znnobd//hWAz/E9BCzLjBouCwCwt8yo4bIAAHvLjBouC1iW6xGAT3POQ2///CsAn+N7CFiWGTVcFgBgb5lRw2UBAPaWGTVcFrAs1yMAn+ach97++VcAvsX3EPD/yIwaLgsAsLfMqOGyAAB7y4waLgv4f+R6BOC7nPPQ2z//CsBX+B4C/n+ZUcNlAQD2lhk1XBYAYG+ZUcNlAf+/XI8AfJFzHnpxWQCAvWVGDZcFANhbZtRwWQCAvWVGDZcFAMAf5zz04rIAAHvLjBouCwCwt8yo4bIAAHvLjBouCwCAP8556MVlAQD2lhk1XBYAYG+ZUcNlAQD2lhk1XBYAAH+c89CLywIA7C0zargsAMDeMqOGywIA7C0zargsAAD+OOehF5cFANhbZtRwWQCAvWVGDZcFANhbZtRwWQAA/HHOQy8uCwCwt8yo4bIAAHvLjBouCwCwt8yo4bIAAPjjnIdeXBYAYG+ZUcNlAQD2lhk1XBYAYG+ZUcNlAQDwxzkPvbgsAMDeMqOGywIA7C0zargsAMDeMqOGywIA4I9zHnpxWQCAvWVGDZcFANhbZtRwWQCAvWVGDZcFAMAf5zz04rIAAHvLjBouCwCwt8yo4bIAAHvLjBouCwCAP8556MVlAQD2lhk1XBYAYG+ZUcNlAQD2lhk1XBYAAH+c89CLywIA7C0zargsAMDeMqOGywIA7C0zargsAAD+OOehF5cFANhbZtRwWQCAvWVGDZcFANhbZtRwWQAA/HHOQy8uCwCwt8yo4bIAAHvLjBouCwCwt8yo4bIAAPjjnIdeXBYAYG+ZUcNlAQD2lhk1XBYAYG+ZUcNlAQDwxzkPvbgsAMDeMqOGywIA7C0zargsAMDeMqOGywIA4I9zHnpxWQCAvWVGDZcFANhbZtRwWQCAvWVGDZcFAMAf5zz04rIAAHvLjBouCwCwt8yo4bIAAHvLjBouCwCAP8556MVlAQD2lhk1XBYAYG+ZUcNlAQD2lhk1XBYAAH+c89CLywIA7C0zargsAMDeMqOGywIA7C0zargsAAD+OOehF5cFANhbZtRwWQCAvWVGDZcFANhbZtRwWQAA/HHOQy8uCwCwt8yo4bIAAHvLjBouCwCwt8yo4bIAAPjjnIdeXBYAYG+ZUcNlAQD2lhk1XBYAYG+ZUcNlAQDwxzkPvbgsAMDeMqOGywIA7C0zargsAMDeMqOGywIA4I9zHnpxWQCAvWVGDZcFANhbZtRwWQCAvWVGDZcFAMAf5zz04rIAAHvLjBouCwCwt8yo4bIAAHvLjBouCwCAP8556MVlAQD2lhk1XBYAYG+ZUcNlAQD2lhk1XBYAAH+c89CLywIA7C0zargsAMDeMqOGywIA7C0zargsAAD+OOehF5cFANhbZtRwWQCAvWVGDZcFANhbZtRwWQAA/HHOQy8uCwCwt8yo4bIAAHvLjBouCwCwt8yo4bIAAPjjnIdeXBYAYG+ZUcNlAQD2lhk1XBYAYG+ZUcNlAQDwxzkPvbgsAMDeMqOGywIA7C0zargsAMDeMqOGywIA4I9zHnpxWQCAvWVGDZcFANhbZtRwWQCAvWVGDZcFAMAf5zz04rIAAHvLjBouCwCwt8yo4bIAAHvLjBouCwCAP8556MVlAQD2lhk1XBYAYG+ZUcNlAQD2lhk1XBYAAH+c89CLywIA7C0zargsAMDeMqOGywIA7C0zargsAAD+OOehF5cFANhbZtRwWQCAvWVGDZcFANhbZtRwWQAA/HHOQy8uCwCwt8yo4bIAAHvLjBouCwCwt8yo4bIAAPjjnIdeXBYAYG+ZUcNlAQD2lhk1XBYAYG+ZUcNlAQDwxzkPvbgsAMDeMqOGywIA7C0zargsAMDeMqOGywIA4I9zHnpxWQCAvWVGDZcFANhbZtRwWQCAvWVGDZcFAMAf5zz04rIAAHvLjBouCwCwt8yo4bIAAHvLjBouCwCAP8556MVlAQD2lhk1XBYAYG+ZUcNlAQD2lhk1XBYAAH+c89CLywIA7C0zargsAMDeMqOGywIA7C0zargsAAD+OOehF5cFANhbZtRwWQCAvWVGDZcFANhbZtRwWQAA/HHOQy8uCwCwt8yo4bIAAHvLjBouCwCwt8yo4bIAAPjjnIdeXBYAYG+ZUcNlAQD2lhk1XBYAYG+ZUcNlAQDwxzkPvbgsAMDeMqOGywIA7C0zavh/7cExEQAxDANBqXwAYWd45qmvMpPGCHy7bQEAdktFA7cFAMDlnE8PtwUA2C0VDdwWAGC3VDRwWwCA3VLRwG0BAHA559PDbQEAdktFA7cFANgtFQ3cFgBgt1Q0cFsAAFzO+fRwWwCA3VLRwG0BAHZLRQO3BQDYLRUN3BYAAJdzPj3cFgBgt1Q0cFsAgN1S0cBtAQB2S0UDtwUAwOWcTw+3BQDYLRUN3BYAYLdUNHBbAIDdUtHAbQEAcDnn08NtAQB2S0UDtwUA2C0VDdwWAGC3VDRwWwAAXM759HBbAIDdUtHAbQEAdktFA7cFANgtFQ3cFgAAl3M+PdwWAGC3VDRwWwCA3VLRwG0BAHZLRQO3BQDA5ZxPD7cFANgtFQ3cFgBgt1Q0cFsAgN1S0cBtAQBwOefTw20BAHZLRQO3BQDYLRUN3BYAYLdUNHBbAABczvn0cFsAgN1S0cBtAQB2S0UDtwUA2C0VDdwWAACXcz493BYAYLdUNHBbAIDdUtHAbQEAdktFA7cFAMDlnE8PtwUA2C0VDdwWAGC3VDRwWwCA3VLRwG0BAHA559PDbQEAdktFA7cFANgtFQ3cFgBgt1Q0cFsAAFzO+fRwWwCA3VLRwG0BAHZLRQO3BQDYLRUN3BYAAJdzPj3cFgBgt1Q0cFsAgN1S0cBtAQB2S0UDtwUAwOWcTw+3BQDYLRUN3BYAYLdUNHBbAIDdUtHAbQEAcDnn08NtAQB2S0UDtwUA2C0VDdwWAGC3VDRwWwAAXM759HBbAIDdUtHAbQEAdktFA7cFANgtFQ3cFgAAl3M+PdwWAGC3VDRwWwCA3VLRwG0BAHZLRQO3BQDA5ZxPD7cFANgtFQ3cFgBgt1Q0cFsAgN1S0cBtAQBwOefTw20BAHZLRQO3BQDYLRUN3BYAYLdUNHBbAABczvn0cFsAgN1S0cBtAQB2S0UDtwUA2C0VDdwWAACXcz493BYAYLdUNHBbAIDdUtHAbQEAdktFA7cFAMDlnE8PtwUA2C0VDdwWAGC3VDRwWwCA3VLRwG0BAHA559PDbQEAdktFA7cFANgtFQ3cFgBgt1Q0cFsAAFzO+fRwWwCA3VLRwG0BAHZLRQO3BQDYLRUN3BYAAJdzPj3cFgBgt1Q0cFsAgN1S0cBtAQB2S0UDtwUAwOWcTw+3BQDYLRUN3BYAYLdUNHBbAIDdUtHAbQEAcDnn08NtAQB2S0UDtwUA2C0VDdwWAGC3VDRwWwAAXM759HBbAIDdUtHAbQEAdktFA7cFANgtFQ3cFgAAl3M+PdwWAGC3VDRwWwCA3VLRwG0BAHZLRQO3BQDA5ZxPD7cFANgtFQ3cFgBgt1Q0cFsAgN1S0cBtAQBwOefTw20BAHZLRQO3BQDYLRUN3BYAYLdUNHBbAABczvn0cFsAgN1S0cBtAQB2S0UDtwUA2C0VDdwWAACXcz493BYAYLdUNHBbAIDdUtHAbQEAdktFA7cFAMDlnE8PtwUA2C0VDdwWAGC3VDRwWwCA3VLRwG0BAHA559PDbQEAdktFA7cFANgtFQ3cFgBgt1Q0cFsAAFzO+fRwWwCA3VLRwG0BAHZLRQO3BQDYLRUN3BYAAJdzPj3cFgBgt1Q0cFsAgN1S0cBtAQB2S0UDtwUAwOWcTw+3BQDYLRUN3BYAYLdUNHBbAIDdUtHAbQEAcDnn08NtAQB2S0UDtwUA2C0VDdwWAGC3VDRwWwAAXM759HBbAIDdUtHAbQEAdktFA7cFANgtFQ3cFgAAl3M+PdwWAGC3VDRwWwCA3VLRwG0BAHZLRQO3BQDA5ZxPD7cFANgtFQ3cFgBgt1Q0cFsAgN1S0cBtAQBwOefTw20BAHZLRQO3BQDYLRUN3BYAYLdUNHBbAABczvn0cFsAgN1S0cBtAQB2S0UDtwUA2C0VDdwWAACXcz493BYAYLdUNHBbAIDdUtHAbQEAdktFA7cFAMDlnE8PtwUA2C0VDdwWAGC3VDRwWwCA3VLRwG0BAHA559PDbQEAdktFA7cFANgtFQ3cFgBgt1Q0cFsAAFzO+fRwWwCA3VLRwG0BAHZLRQO3BQDYLRUN3BYAAJdzPj3cFgBgt1Q0cFsAgN1S0cBtAQB2S0UDtwUAwOWcTw+3BQDYLRUN3BYAYLdUNHBbAIDdUtHAbQEAcDnn08NtAQB2S0UDtwUA2C0VDdwWAGC3VDRwWwAAXM759HBbAIDdUtHAbQEAdktFA7cFANgtFQ3cFgAAl3M+PdwWAGC3VDRwWwCA3VLRwG0BAHZLRQO3BQDA5ZxPD7cFANgtFQ3cFgBgt1Q0cFsAgN1S0cBtAQBwOefTw20BAHZLRQO3BQDYLRUN3BYAYLdUNHBbAABczvn0cFsAgN1S0cBtAQB2S0UDtwUA2C0VDdwWAACXcz493BYAYLdUNHBbAIDdUtHAbQEAdktFA7cFAMDlnE8PtwUA2C0VDdwWAGC3VDRwWwCA3VLRwG0BAHA559PDbQEAdktFA7cFANgtFQ3cFgBgt1Q0cFsAAFzO+fRwWwCA3VLRwG0BAHZLRQO3BQDYLRUN3BYAAJdzPj3cFgBgt1Q0cFsAgN1S0cBtAQB2S0UDtwUAwOWcTw+3BQDYLRUN3BYAYLdUNHBbAIDdUtHAbQEAcDnn08NtAQB2S0UDtwUA2C0VDdwWAGC3VDRwWwAAXM759HBbAIDdUtHAbQEAdktFA7cFANgtFQ3cFgAAl3M+PdwWAGC3VDRwWwCA3VLRwG0BAHZLRQO3BQDA5ZxPD7cFANgtFQ3cFgBgt1Q0cFsAgN1S0cBtAQBwOefTw20BAHZLRQO3BQDYLRUN3BYAYLdUNHBbAABczvn0cFsAgN1S0cBtAQB2S0UDtwUA2C0VDdwWAACXcz493BYAYLdUNHBbAIDdUtHAbQEAdktFA7cFAMDlnE8PtwUA2C0VDdwWAGC3VDRwWwCA3VLRwG0BAHA559PDbQEAdktFA7cFANgtFQ3cFgBgt1Q0cFsAAFzO+fRwWwCA3VLRwG0BAHZLRQO3BQDYLRUN3BYAAJdzPj3cFgBgt1Q0cFsAgN1S0cBtAQB2S0UDtwUAwOWcTw+3BQDYLRUN3BYAYLdUNHBbAIDdUtHAbQEAcDnn08NtAQB2S0UDtwUA2C0VDdwWAGC3VDRwWwAAXM759HBbAIDdUtHAbQEAdktFA7cFANgtFQ3cFgAAl3M+PdwWAGC3VDRwWwCA3VLRwG0BAHZLRQO3BQDA5ZxPD7cFANgtFQ3cFgBgt1Q0cFsAgN1S0cBtAQBwOefTw20BAHZLRQO3BQDYLRUN3BYAYLdUNHBbAABczvn0cFsAgN1S0cBtAQB2S0UDtwUA2C0VDdwWAACXcz493BYAYLdUNHBbAIDdUtHAbQEAdktFA7cFAMDlnE8PtwUA2C0VDdwWAGC3VDRwWwCA3VLRwG0BAHA559PDbQEAdktFA7cFANgtFQ3cFgBgt1Q0cFsAAFzO+fRwWwCA3VLRwG0BAHZLRQO3BQDYLRUN3BYAAJdzPj3cFgBgt1Q0cFsAgN1S0cBtAQB2S0UDtwUAwOWcTw+3BQDYLRUN3BYAYLdUNHBbAIDdUtHAbQEAcDnn08NtAQB2S0UDtwUA2C0VDdwWAGC3VDRwWwAAXM759HBbAIDdUtHAbQEAdktFA7cFANgtFQ3cFgAAl3M+PdwWAGC3VDRwWwCA3VLRwG0BAHZLRQO3BQDA5ZxPD7cFANgtFQ3cFgBgt1Q0cFsAgN1S0cBtAQBwOefTw20BAHZLRQO3BQDYLRUN3BYAYLdUNHBbAABczvn0cFsAgN1S0cBtAQB2S0UDtwUA2C0VDdwWAACXcz493BYAYLdUNHBbAIDdUtHAbQEAdktFA7cFAMDlnE8PtwUA2C0VDdwWAGC3VDRwWwCA3VLRwG0BAHA559PDbQEAdktFA7cFANgtFQ3cFgBgt1Q0cFsAAFzO+fRwWwCA3VLRwG0BAHZLRQO3BQDYLRUN3BYAAJdzPj3cFgBgt1Q0cFsAgN1S0cBtAQB2S0UDtwUAwOWcTw+3BQDYLRUN3BYAYLdUNHBbAIDdUtHAbQEAcDnn08NtAQB2S0UDtwUA2C0VDdwWAGC3VDRwWwAAXM759HBbAIDdUtHAbQEAdktFA7cFANgtFQ3cFgAAl3M+PdwWAGC3VDRwWwCA3VLRwG0BAHZLRQO3BQDA5ZxPD7cFANgtFQ3cFgBgt1Q0cFsAgN1S0cBtAQBwOefTw20BAHZLRQO3BQDYLRUN3BYAYLdUNHBbAABczvn0cFsAgN1S0cBtAQB2S0UDtwUA2C0VDdwWAACXcz493BYAYLdUNHBbAM9qsqsAAA2RSURBVIDdUtHAbQEAdktFA7cFAMDlnE8PtwUA2C0VDdwWAGC3VDRwWwCA3VLRwG0BAHA559PDbQEAdktFA7cFANgtFQ3cFgBgt1Q0cFsAAFzO+fRwWwCA3VLRwG0BAHZLRQO3BQDYLRUN3BYAAJdzPj3cFgBgt1Q0cFsAgN1S0cBtAQB2S0UDtwUAwOWcTw+3BQDYLRUN3BYAYLdUNHBbAIDdUtHAbQEAcDnn08NtAQB2S0UDtwUA2C0VDdwWAGC3VDRwWwAAXM759HBbAIDdUtHAbQEAdktFA7cFANgtFQ3cFgAAl3M+PdwWAGC3VDRwWwCA3VLRwG0BAHZLRQO3BQDA5ZxPD7cFANgtFQ3cFgBgt1Q0cFsAgN1S0cBtAQBwOefTw20BAHZLRQO3BQDYLRUN3BYAYLdUNHBbAABczvn0cFsAgN1S0cBtAQB2S0UDtwUA2C0VDdwWAACXcz493BYAYLdUNHBbAIDdUtHAbQEAdktFA7cFAMDlnE8PtwUA2C0VDdwWAGC3VDRwWwCA3VLRwG0BAHA559PDbQEAdktFA7cFANgtFQ3cFgBgt1Q0cFsAAFzO+fRwWwCA3VLRwG0BAHZLRQO3BQDYLRUN3BYAAJdzPj3cFgBgt1Q0cFsAgN1S0cBtAQB2S0UDtwUAwOWcTw+3BQDYLRUN3BYAYLdUNHBbAIDdUtHAbQEAcDnn08NtAQB2S0UDtwUA2C0VDdwWAGC3VDRwWwAAXM759HBbAIDdUtHAbQEAdktFA7cFANgtFQ3cFgAAl3M+PdwWAGC3VDRwWwCA3VLRwG0BAHZLRQO3BQDA5ZxPD7cFANgtFQ3cFgBgt1Q0cFsAgN1S0cBtAQBwOefTw20BAHZLRQO3BQDYLRUN3BYAYLdUNHBbAABczvn0cFsAgN1S0cBtAQB2S0UDtwUA2C0VDdwWAACXcz493BYAYLdUNHBbAIDdUtHAbQEAdktFA7cFAMDlnE8PtwUA2C0VDdwWAGC3VDRwWwCA3VLRwG0BAHA559PDbQEAdktFA7cFANgtFQ3cFgBgt1Q0cFsAAFzO+fRwWwCA3VLRwG0BAHZLRQO3BQDYLRUN3BYAAJdzPj3cFgBgt1Q0cFsAgN1S0cBtAQB2S0UDtwUAwOWcTw+3BQDYLRUN3BYAYLdUNHBbAIDdUtHAbQEAcDnn08NtAQB2S0UDtwUA2C0VDdwWAGC3VDRwWwAAXM759HBbAIDdUtHAbQEAdktFA7cFANgtFQ3cFgAAl3M+PdwWAGC3VDRwWwCA3VLRwG0BAHZLRQO3BQDA5ZxPD7cFANgtFQ3cFgBgt1Q0cFsAgN1S0cBtAQBwOefTw20BAHZLRQO3BQDYLRUN3BYAYLdUNHBbAABczvn0cFsAgN1S0cBtAQB2S0UDtwUA2C0VDdwWAACXcz493BYAYLdUNHBbAIDdUtHAbQEAdktFA7cFAMDlnE8PtwUA2C0VDdwWAGC3VDRwWwCA3VLRwG0BAHA559PDbQEAdktFA7cFANgtFQ3cFgBgt1Q0cFsAAFzO+fRwWwCA3VLRwG0BAHZLRQO3BQDYLRUN3BYAAJdzPj3cFgBgt1Q0cFsAgN1S0cBtAQB2S0UDtwUAwOWcTw+3BQDYLRUN3BYAYLdUNHBbAIDdUtHAbQEAcDnn08NtAQB2S0UDtwUA2C0VDdwWAGC3VDRwWwAAXM759HBbAIDdUtHAbQEAdktFA7cFANgtFQ3cFgAAl3M+PdwWAGC3VDRwWwCA3VLRwG0BAHZLRQO3BQDA5ZxPD7cFANgtFQ3cFgBgt1Q0cFsAgN1S0cBtAQBwOefTw20BAHZLRQO3BQDYLRUN3BYAYLdUNHBbAABczvn0cFsAgN1S0cBtAQB2S0UDtwUA2C0VDdwWAACXcz493BYAYLdUNHBbAIDdUtHAbQEAdktFA7cFAMDlnE8PtwUA2C0VDdwWAGC3VDRwWwCA3VLRwG0BAHA559PDbQEAdktFA7cFANgtFQ3cFgBgt1Q0cFsAAFzO+fRwWwCA3VLRwG0BAHZLRQO3BQDYLRUN3BYAAJdzPj3cFgBgt1Q0cFsAgN1S0cBtAQB2S0UDtwUAwOWcTw+3BQDYLRUN3BYAYLdUNHBbAIDdUtHAbQEAcDnn08NtAQB2S0UDtwUA2C0VDdwWAGC3VDRwWwAAXM759HBbAIDdUtHAbQEAdktFA7cFANgtFQ3cFgAAl3M+PdwWAGC3VDRwWwCA3VLRwG0BAHZLRQO3BQDA5ZxPD7cFANgtFQ3cFgBgt1Q0cFsAgN1S0cBtAQBwOefTw20BAHZLRQO3BQDYLRUN3BYAYLdUNHBbAABczvn0cFsAgN1S0cBtAQB2S0UDtwUA2C0VDdwWAACXcz493BYAYLdUNHBbAIDdUtHAbQEAdktFA7cFAMDlnE8PtwUA2C0VDdwWAGC3VDRwWwCA3VLRwG0BAHA559PDbQEAdktFA7cFANgtFQ3cFgBgt1Q0cFsAAFzO+fRwWwCA3VLRwG0BAHZLRQO3BQDYLRUN3BYAAJdzPj3cFgBgt1Q0cFsAgN1S0cBtAQB2S0UDtwUAwOWcTw+3BQDYLRUN3BYAYLdUNHBbAIDdUtHAbQEAcDnn08NtAQB2S0UDtwUA2C0VDdwWAGC3VDRwWwAAXM759HBbAIDdUtHAbQEAdktFA7cFANgtFQ3cFgAAl3M+PdwWAGC3VDRwWwCA3VLRwG0BAHZLRQO3BQDA5ZxPD7cFANgtFQ3cFgBgt1Q0cFsAgN1S0cBtAQBwOefTw20BAHZLRQO3BQDYLRUN3BYAYLdUNHBbAABczvn0cFsAgN1S0cBtAQB2S0UDtwUA2C0VDdwWAACXcz493BYAYLdUNHBbAIDdUtHAbQEAdktFA7cFAMDlnE8PtwUA2C0VDdwWAGC3VDRwWwCA3VLRwG0BAHA559PDbQEAdktFA7cFANgtFQ3cFgBgt1Q0cFsAAFzO+fRwWwCA3VLRwG0BAHZLRQO3BQDYLRUN3BYAAJdzPj3cFgBgt1Q0cFsAgN1S0cBtAQB2S0UDtwUAwOWcTw+3BQDYLRUN3BYAYLdUNHBbAIDdUtHAbQEAcDnn08NtAQB2S0UDtwUA2C0VDdwWAGC3VDRwWwAAXM759HBbAIDdUtHAbQEAdktFA7cFANgtFQ3cFgAAl3M+PdwWAGC3VDRwWwCA3VLRwG0BAHZLRQO3BQDA5ZxPD7cFANgtFQ3cFgBgt1Q0cFsAgN1S0cBtAQBwOefTw20BAHZLRQO3BQDYLRUN3BYAYLdUNHBbAABczvn0cFsAgN1S0cBtAQB2S0UDtwUA2C0VDdwWAACXcz493BYAYLdUNHBbAIDdUtHAbQEAdktFA7cFAMDlnE8PtwUA2C0VDdwWAGC3VDRwWwCA3VLRwG0BAHA559PDbQEAdktFA7cFANgtFQ3cFgBgt1Q0cFsAAFzO+fRwWwCA3VLRwG0BAHZLRQO3BQDYLRUN3BYAAJdzPj3cFgBgt1Q0cFsAgN1S0cBtAQB2S0UDtwUAwOWcTw+3BQDYLRUN3BYAYLdUNHBbAIDdUtHAbQEAcDnn08NtAQB2S0UDtwUA2C0VDdwWAGC3VDRwWwAAXM759HBbAIDdUtHAbQEAdktFA7cFANgtFQ3cFgAAl3M+PdwWAGC3VDRwWwCA3VLRwG0BAHZLRQO3BQDA5ZxPD7cFANgtFQ3cFgBgt1Q0cFsAgN1S0cBtAQBwOefTw20BAHZLRQO3BQDYLRUN3BYAYLdUNHBbAABczvn0cFsAgN1S0cBtAQB2S0UDtwUA2C0VDdwWAACXcz493BYAYLdUNHBbAIDdUtHAbQEAdktFA7cFAMDlnE8PtwUA2C0VDdwWAGC3VDRwWwCA3VLRwG0BAHA559PDbQEAdktFA7cFANgtFQ3cFgBgt1Q0cFsAAFzO+fRwWwCA3VLRwG0BAHZLRQO3BQDYLRUN3BYAAJdzPj3cFgBgt1Q0cFsAgN1S0cBtAQB2S0UDtwUAwOWcTw+3BQDYLRUN3BYAYLdUNHBbAIDdUtHAbQEAcDnn08NtAQB2S0UDtwUA2C0VDdwWAGC3VDRwWwAAXM759HBbAIDdUtHAbQEAdktFA7cFANgtFQ3cFgAAl3M+PdwWAGC3VDRwWwCA3VLRwG0BAHZLRQO3BQDA5ZxPD7cFANgtFQ3cFgBgt1Q0cFsAgN1S0cBtAQBwOefTw20BAHZLRQO3BQDYLRUN3BYAYLdUNHBbAABczvn0cFsAgN1S0cBtAQB2S0UDtwUA2C0VDdwWAACXcz493BYAYLdUNHBbAIDdUtHAbQEAdktFA7cFAMDlnE8PtwUA2C0VDdwWAGC3VDRwWwCA3VLRwG0BAHA559PDbQEAdktFA7cFANgtFQ3cFgBgt1Q0cFsAAFzO+fRwWwCA3VLRwG0BAHZLRQO3BQDYLRUN3BYAAJdzPj3cFgBgt1Q0cFsAgN1S0cBtAQB2S0UDtwUAwOWcTw+3BQDYLRUN3BYAYLdUNHBbAIDdUtHAbQEAcDnn08NtAQB2S0UDtwUA2C0VDdwWAGC3VDRwWwAAXM759HBbAIDdUtHAbQEAdktFA7cFANgtFQ3cFgAAl3M+PdwWAGC3VDRwWwCA3VLRwG0BAHZLRQO3BQDA9QOu/j3+YQpB8wAAAABJRU5ErkJggg==;fontSize=64;" vertex="1" parent="1">
          <mxGeometry x="-390" y="-2260" width="772.06" height="500" as="geometry" />
        </mxCell>
        <mxCell id="GqlQAkB-K6Ch1QKG9bl8-2" value="&lt;font style=&quot;font-size: 64px;&quot;&gt;A&lt;/font&gt;" style="text;html=1;strokeColor=none;fillColor=none;align=center;verticalAlign=middle;whiteSpace=wrap;rounded=0;fontColor=#007FFF;fontSize=64;" vertex="1" parent="1">
          <mxGeometry x="-370" y="-2220" width="150" height="30" as="geometry" />
        </mxCell>
        <mxCell id="GqlQAkB-K6Ch1QKG9bl8-3" value="&lt;font style=&quot;font-size: 64px;&quot;&gt;B&lt;/font&gt;" style="text;html=1;strokeColor=none;fillColor=none;align=center;verticalAlign=middle;whiteSpace=wrap;rounded=0;fontColor=#007FFF;fontSize=64;" vertex="1" parent="1">
          <mxGeometry x="-370" y="-2090" width="150" height="30" as="geometry" />
        </mxCell>
        <mxCell id="GqlQAkB-K6Ch1QKG9bl8-4" value="&lt;font style=&quot;font-size: 64px;&quot;&gt;C&lt;/font&gt;" style="text;html=1;strokeColor=none;fillColor=none;align=center;verticalAlign=middle;whiteSpace=wrap;rounded=0;fontColor=#007FFF;fontSize=64;" vertex="1" parent="1">
          <mxGeometry x="-370" y="-1960" width="150" height="30" as="geometry" />
        </mxCell>
        <mxCell id="GqlQAkB-K6Ch1QKG9bl8-5" value="&lt;font style=&quot;font-size: 64px;&quot;&gt;D&lt;/font&gt;" style="text;html=1;strokeColor=none;fillColor=none;align=center;verticalAlign=middle;whiteSpace=wrap;rounded=0;fontColor=#007FFF;fontSize=64;" vertex="1" parent="1">
          <mxGeometry x="-370" y="-1830" width="150" height="30" as="geometry" />
        </mxCell>
        <mxCell id="GqlQAkB-K6Ch1QKG9bl8-6" value="&lt;font style=&quot;font-size: 64px;&quot;&gt;E&lt;/font&gt;" style="text;html=1;strokeColor=none;fillColor=none;align=center;verticalAlign=middle;whiteSpace=wrap;rounded=0;fontColor=#007FFF;fontSize=64;" vertex="1" parent="1">
          <mxGeometry x="-170" y="-2220" width="150" height="30" as="geometry" />
        </mxCell>
        <mxCell id="GqlQAkB-K6Ch1QKG9bl8-7" value="&lt;font style=&quot;font-size: 64px;&quot;&gt;F&lt;/font&gt;" style="text;html=1;strokeColor=none;fillColor=none;align=center;verticalAlign=middle;whiteSpace=wrap;rounded=0;fontColor=#007FFF;fontSize=64;" vertex="1" parent="1">
          <mxGeometry x="-170" y="-2090" width="150" height="30" as="geometry" />
        </mxCell>
        <mxCell id="GqlQAkB-K6Ch1QKG9bl8-8" value="&lt;font style=&quot;font-size: 64px;&quot;&gt;I&lt;/font&gt;" style="text;html=1;strokeColor=none;fillColor=none;align=center;verticalAlign=middle;whiteSpace=wrap;rounded=0;fontColor=#007FFF;fontSize=64;" vertex="1" parent="1">
          <mxGeometry x="20" y="-2220" width="150" height="30" as="geometry" />
        </mxCell>
        <mxCell id="GqlQAkB-K6Ch1QKG9bl8-9" value="&lt;font style=&quot;font-size: 64px;&quot;&gt;M&lt;/font&gt;" style="text;html=1;strokeColor=none;fillColor=none;align=center;verticalAlign=middle;whiteSpace=wrap;rounded=0;fontColor=#007FFF;fontSize=64;" vertex="1" parent="1">
          <mxGeometry x="210" y="-2220" width="150" height="30" as="geometry" />
        </mxCell>
        <mxCell id="GqlQAkB-K6Ch1QKG9bl8-10" value="&lt;font style=&quot;font-size: 64px;&quot;&gt;G&lt;/font&gt;" style="text;html=1;strokeColor=none;fillColor=none;align=center;verticalAlign=middle;whiteSpace=wrap;rounded=0;fontColor=#007FFF;fontSize=64;" vertex="1" parent="1">
          <mxGeometry x="-170" y="-1960" width="150" height="30" as="geometry" />
        </mxCell>
        <mxCell id="GqlQAkB-K6Ch1QKG9bl8-13" value="&lt;font style=&quot;font-size: 64px;&quot;&gt;H&lt;/font&gt;" style="text;html=1;strokeColor=none;fillColor=none;align=center;verticalAlign=middle;whiteSpace=wrap;rounded=0;fontColor=#007FFF;fontSize=64;" vertex="1" parent="1">
          <mxGeometry x="-170" y="-1830" width="150" height="30" as="geometry" />
        </mxCell>
        <mxCell id="GqlQAkB-K6Ch1QKG9bl8-14" value="&lt;font style=&quot;font-size: 64px;&quot;&gt;J&lt;/font&gt;" style="text;html=1;strokeColor=none;fillColor=none;align=center;verticalAlign=middle;whiteSpace=wrap;rounded=0;fontColor=#007FFF;fontSize=64;" vertex="1" parent="1">
          <mxGeometry x="20" y="-2090" width="150" height="30" as="geometry" />
        </mxCell>
        <mxCell id="GqlQAkB-K6Ch1QKG9bl8-15" value="&lt;font style=&quot;font-size: 64px;&quot;&gt;K&lt;/font&gt;" style="text;html=1;strokeColor=none;fillColor=none;align=center;verticalAlign=middle;whiteSpace=wrap;rounded=0;fontColor=#007FFF;fontSize=64;" vertex="1" parent="1">
          <mxGeometry x="20" y="-1960" width="150" height="30" as="geometry" />
        </mxCell>
        <mxCell id="GqlQAkB-K6Ch1QKG9bl8-16" value="&lt;font style=&quot;font-size: 64px;&quot;&gt;L&lt;/font&gt;" style="text;html=1;strokeColor=none;fillColor=none;align=center;verticalAlign=middle;whiteSpace=wrap;rounded=0;fontColor=#007FFF;fontSize=64;" vertex="1" parent="1">
          <mxGeometry x="20" y="-1830" width="150" height="30" as="geometry" />
        </mxCell>
        <mxCell id="GqlQAkB-K6Ch1QKG9bl8-17" value="&lt;font style=&quot;font-size: 64px;&quot;&gt;N&lt;/font&gt;" style="text;html=1;strokeColor=none;fillColor=none;align=center;verticalAlign=middle;whiteSpace=wrap;rounded=0;fontColor=#007FFF;fontSize=64;" vertex="1" parent="1">
          <mxGeometry x="210" y="-2090" width="150" height="30" as="geometry" />
        </mxCell>
        <mxCell id="GqlQAkB-K6Ch1QKG9bl8-18" value="&lt;font style=&quot;font-size: 64px;&quot;&gt;O&lt;/font&gt;" style="text;html=1;strokeColor=none;fillColor=none;align=center;verticalAlign=middle;whiteSpace=wrap;rounded=0;fontColor=#007FFF;fontSize=64;" vertex="1" parent="1">
          <mxGeometry x="210" y="-1960" width="150" height="30" as="geometry" />
        </mxCell>
        <mxCell id="GqlQAkB-K6Ch1QKG9bl8-19" value="&lt;font style=&quot;font-size: 64px;&quot;&gt;P&lt;/font&gt;" style="text;html=1;strokeColor=none;fillColor=none;align=center;verticalAlign=middle;whiteSpace=wrap;rounded=0;fontColor=#007FFF;fontSize=64;" vertex="1" parent="1">
          <mxGeometry x="210" y="-1830" width="150" height="30" as="geometry" />
        </mxCell>
      </root>
    </mxGraphModel>
  </diagram>
</mxfile>
